<?xml version="1.0" encoding="utf-8"?>
<!-- Generator: Adobe Illustrator 16.0.0, SVG Export Plug-In . SVG Version: 6.00 Build 0)  -->
<!DOCTYPE svg PUBLIC "-//W3C//DTD SVG 1.1//EN" "http://www.w3.org/Graphics/SVG/1.1/DTD/svg11.dtd">
<svg version="1.1" xmlns="http://www.w3.org/2000/svg" xmlns:xlink="http://www.w3.org/1999/xlink" x="0px" y="0px" width="70px"
	 height="100px" viewBox="240.25 336 70 100" enable-background="new 240.25 336 70 100" xml:space="preserve">
<g id="图层_2">
	<g>
	</g>
	<path fill="none" stroke="#1B4476" stroke-width="3" stroke-miterlimit="10" d="M286.401,343.372
		c0.472-1.367,1.971-2.271,3.397-2.148c0.975,0.074,1.82,0.785,2.171,1.681c0.403,1.01,0.232,2.146-0.125,3.143
		c-0.442,1.164-1.052,2.282-1.864,3.231c-0.141-0.627-0.278-1.273-0.626-1.823c-0.248-0.389-0.723-0.5-1.123-0.66
		C286.898,346.329,285.952,344.76,286.401,343.372L286.401,343.372z M288.865,341.83c-0.349,0.109-0.646,0.404-0.701,0.772
		c0.02,0.334,0.343,0.521,0.651,0.507c0.559,0.05,1.245-0.324,1.25-0.943C289.908,341.675,289.267,341.672,288.865,341.83z"/>
	<path fill="none" stroke="#1B4476" stroke-width="3" stroke-miterlimit="10" d="M274.435,413.298
		c0.129-1.095,0.342-2.185,0.577-3.26c1.547,1.132,3.195,2.124,4.711,3.295C277.96,413.395,276.198,413.293,274.435,413.298z"/>
	<path fill="none" stroke="#1B4476" stroke-width="3" stroke-miterlimit="10" d="M262.222,347.744
		c0.048-0.131,0.097-0.262,0.146-0.393c0.684-0.255,1.313-0.629,1.952-0.977c3.139-1.499,6.211-3.133,9.326-4.68
		c0.328-0.163,0.986-0.281,1.058,0.059c0.071,0.34-2.559,1.558-3.878,2.252c-2.704,1.272-5.344,2.688-8.13,3.777
		C262.542,347.843,262.377,347.753,262.222,347.744z"/>
	<path fill="none" stroke="#1B4476" stroke-width="3" stroke-miterlimit="10" d="M289.285,416.867
		c-0.472,0.45-1.017,0.818-1.496,1.262c-0.171,0.15-0.271,0.384-0.25,0.614c0.029,0.646,0.132,1.286,0.148,1.935
		c-0.01,0.314-0.36,0.573-0.659,0.457c-0.691-0.295-1.241-0.849-1.938-1.127c-0.782-0.082-1.434,0.661-2.179,0.631
		c-0.205-0.911,0.602-1.811,0.35-2.732c-0.384-0.6-0.959-1.053-1.343-1.652c-0.211-0.285-0.019-0.696,0.314-0.761
		c0.666-0.101,1.343-0.066,2.01-0.148c0.223-0.03,0.422-0.172,0.535-0.365c0.353-0.546,0.653-1.125,1.023-1.66
		c0.047,0.02,0.143,0.058,0.189,0.077c0.266,0.577,0.444,1.193,0.717,1.77c0.086,0.192,0.255,0.349,0.462,0.4
		c0.623,0.192,1.275,0.27,1.898,0.465C289.406,416.134,289.56,416.615,289.285,416.867z"/>
	<path fill="none" stroke="#1B4476" stroke-width="3" stroke-miterlimit="10" d="M281.176,411.918
		c-0.806-0.578-1.656-1.097-2.448-1.697c0.728-0.126,1.494-0.182,2.16-0.529c0.378-0.189,0.306-0.671,0.376-1.019
		c0.101-1.252,0.13-2.509,0.111-3.765c0.428-0.139,0.876-0.192,1.321-0.253c2.61,2.923,4.102,6.739,4.558,10.606
		c-0.104-0.099-0.244-0.172-0.303-0.306c-0.262-0.595-0.428-1.228-0.723-1.805c-0.192-0.396-0.728-0.412-1.096-0.313
		c-0.447,0.25-0.523,0.831-0.9,1.15c-0.684-0.371-1.309-0.85-1.933-1.312c0.497-0.018,1.033-0.052,1.418-0.412
		c0.893-0.656,0.743-2.227-0.244-2.719c-0.817-0.499-2.016-0.122-2.361,0.782C280.846,410.838,281.012,411.407,281.176,411.918z"/>
	<path fill="none" stroke="#1B4476" stroke-width="3" stroke-miterlimit="10" d="M283.306,427.727
		c-0.423,0.644-0.897,1.253-1.366,1.863c-0.493,0.68-1.35,0.967-2.146,1.094c-1.371,0.225-2.772,0.055-4.115-0.245
		c-0.318-0.098-0.695-0.129-0.944-0.371c-0.229-0.689-0.195-1.429-0.209-2.145C277.436,428.356,280.423,428.35,283.306,427.727z"/>
	<path fill="none" stroke="#1B4476" stroke-width="3" stroke-miterlimit="10" d="M281.721,415.307
		c-0.154,0.381-0.335,0.827-0.069,1.208c0.45,0.553,1.03,1.027,1.353,1.672c-0.055,0.891-0.562,1.724-0.447,2.637
		c-0.208-0.18-0.484-0.409-0.35-0.721c0.119-0.734,0.514-1.44,0.432-2.193c-0.331-0.591-0.861-1.034-1.275-1.563
		c-0.122-0.145-0.184-0.336-0.194-0.523C281.209,415.534,281.508,415.438,281.721,415.307z"/>
	<path fill="none" stroke="#1B4476" stroke-width="3" stroke-miterlimit="10" d="M271.175,406.743
		c-0.968-0.649-1.957-1.275-2.881-1.984c0.813,0.119,1.668,0.115,2.446,0.375c4.446,3.069,8.917,6.105,13.342,9.201
		c-0.123,0.334-0.453,0.84-0.865,0.596c-2.7-1.819-5.384-3.66-8.083-5.482c-0.013-0.315-0.056-0.632-0.216-0.91
		C273.675,407.93,272.4,407.386,271.175,406.743z"/>
	<path fill="none" stroke="#1B4476" stroke-width="3" stroke-miterlimit="10" d="M282.35,426.974
		c0.605-0.064,1.189-0.247,1.79-0.341c-0.105,0.341-0.342,0.667-0.718,0.723c-2.901,0.709-5.942,0.71-8.879,0.238
		c0.003-0.186,0.008-0.371,0.013-0.554c1.708,0.143,3.424,0.126,5.136,0.087C280.578,427.085,281.468,427.1,282.35,426.974z"/>
	<path fill="none" stroke="#1B4476" stroke-width="3" stroke-miterlimit="10" d="M284.846,420.329
		c0.51,0.036,0.881,0.465,1.328,0.674c-0.004,0.264-0.015,0.529-0.076,0.786c-0.327,1.546-0.802,3.101-1.721,4.403
		c-1.117,0.348-2.277,0.582-3.45,0.588c-0.637,0.012-1.275,0.007-1.909,0.057c-1.484,0.099-2.967-0.034-4.448-0.098
		c0.26-0.444,0.321-0.957,0.234-1.46c-2.021,0.899-4.297,1.035-6.47,0.792c-0.248-0.037-0.361-0.29-0.502-0.464
		c-0.31-0.495-0.698-0.942-0.936-1.479c0.641,0.156,1.193,0.597,1.862,0.646c0.978-0.068,1.947-0.226,2.915-0.379
		c0.367-0.046,0.763-0.267,0.815-0.666c0.368-1.695,0.604-3.419,0.963-5.116c1.419,0.378,2.974,0.337,4.329-0.251
		c1.178-0.528,2.034-1.606,2.454-2.809c0.202-0.515,0.259-1.067,0.39-1.601c0.54,0.289,1.022,0.675,1.544,0.994
		c-0.496,0.17-1.2,0.159-1.319,0.809c-0.017,0.8,0.775,1.267,1.197,1.857c0.295,0.283,0.351,0.715,0.209,1.09
		c-0.13,0.52-0.345,1.024-0.363,1.566c-0.049,0.505,0.478,0.949,0.97,0.826C283.548,420.907,284.155,420.502,284.846,420.329z"/>
	<path fill="none" stroke="#1B4476" stroke-width="3" stroke-miterlimit="10" d="M262.074,352.327
		c0.182-0.374-0.055-0.741-0.174-1.091c-0.194-0.533-0.416-1.057-0.594-1.595c-0.046-0.165,0.022-0.261,0.204-0.29
		c0.25,0.766,0.559,1.51,0.849,2.26c0.072,0.246,0.267,0.414,0.45,0.58C262.564,352.244,262.319,352.288,262.074,352.327z"/>
	<path opacity="0.65" fill="none" stroke="#1B4476" stroke-width="3" stroke-miterlimit="10" enable-background="new    " d="
		M254.465,374.464c-0.164-0.109-0.202-0.258-0.116-0.446C254.501,374.138,254.54,374.286,254.465,374.464z"/>
	<path fill="none" stroke="#1B4476" stroke-width="3" stroke-miterlimit="10" d="M246.781,354.584
		c-0.006-0.264,0.201-0.566,0.646-0.788c1.642-0.849,3.278-1.713,4.927-2.547c1.596-0.761,3.21-1.479,4.821-2.207
		c0.324-0.148,0.653-0.285,0.997-0.385l0.025-0.032c0.5-0.226,1.011-0.424,1.521-0.626c0.221,0.444,0.475,0.878,0.821,1.238
		c-0.206,0.247-0.465,0.444-0.684,0.678c-0.313,0.428-0.433,1.02-0.926,1.298c-0.545,0.309-1.147,0.499-1.725,0.74
		c-3.069,1.23-6.227,2.213-9.366,3.245c-0.269,0.108-0.693,0.079-0.825,0.007C246.878,355.134,246.788,354.846,246.781,354.584z"/>
	<path fill="none" stroke="#1B4476" stroke-width="3" stroke-miterlimit="10" d="M287.844,404.689
		c0.601-0.213,1.211-0.398,1.815-0.607c-0.021,0.053-0.061,0.157-0.082,0.21l-0.101-0.043c-0.015,0.006-0.045,0.017-0.061,0.022
		C289.109,404.782,288.365,404.722,287.844,404.689z"/>
	<path fill="none" stroke="#1B4476" stroke-width="3" stroke-miterlimit="10" d="M273.945,408.885
		c-0.13,0.152-0.494-0.011-0.346-0.209C273.726,408.54,274.058,408.698,273.945,408.885z"/>
	<path fill="none" stroke="#1B4476" stroke-width="3" stroke-miterlimit="10" d="M285.047,413.349
		c0.091-0.198,0.296-0.262,0.494-0.301c-0.283,0.589-0.648,1.133-0.979,1.695c-0.093,0.195-0.296,0.273-0.496,0.313
		C284.368,414.473,284.693,413.902,285.047,413.349z"/>
	<path fill="none" stroke="#1B4476" stroke-width="3" stroke-miterlimit="10" d="M298.314,422.142
		c-0.567,0.709-1.447,1.085-2.319,1.256c-1,0.186-2.06,0.193-3.023-0.156c-0.83-0.271-1.594-0.831-2.503-0.766
		c-0.775-0.033-1.49,0.28-2.191,0.563c-0.771,0.689-1.706,1.197-2.681,1.542c0.393-1.09,0.737-2.204,0.885-3.356
		c0.456,0.338,1.254,0.318,1.458-0.295c0.149-0.807-0.209-1.642-0.061-2.44c0.493-0.565,1.177-0.932,1.685-1.482
		c0.254-0.326,0.192-0.834-0.121-1.096c-0.241-0.226-0.588-0.227-0.89-0.302c0.585-0.646,1.516-1.04,2.396-0.968
		c0.055-0.013,0.167-0.036,0.224-0.047c-0.082,0.505-0.423,0.904-0.604,1.372c0.148,0.6,0.85,0.689,1.313,0.949
		c0.698,0.576,0.839,1.599,0.426,2.385c0.87-0.439,1.889-0.636,2.838-0.354c0.865,0.26,1.768,0.604,2.683,0.396
		c0.325-0.063,0.551-0.321,0.815-0.497c0.197,0.049,0.184,0.297,0.244,0.451C299.08,420.267,298.936,421.347,298.314,422.142z"/>
	<path fill="none" stroke="#1B4476" stroke-width="3" stroke-miterlimit="10" d="M293.052,349.719
		c0.575,0.216,0.911,0.786,1.448,1.07c0.979,0.51,2.292,0.573,3.177-0.168c1.106-0.949,1.293-2.691,0.655-3.956
		c-0.461-0.947-1.546-1.479-2.578-1.371c-1.259,0.084-2.28,0.951-3.068,1.866c-0.696,0.845-1.304,1.775-1.725,2.785
		C291.644,349.798,292.349,349.583,293.052,349.719z"/>
	<path fill="none" stroke="#1B4476" stroke-width="3" stroke-miterlimit="10" d="M273.079,406.36
		c-0.601-0.436-1.225-0.839-1.825-1.276c1.331,0.113,2.667,0.159,4.002,0.205c1.941-0.074,3.889-0.12,5.813-0.407v0.24
		c-0.011,0.981,0.048,1.967-0.082,2.944c-0.054,0.451-0.004,0.929-0.205,1.352c-0.794,0.282-1.632,0.492-2.479,0.492
		c-1.762-1.137-3.474-2.361-5.199-3.558L273.079,406.36z"/>
	<path fill="none" stroke="#1B4476" stroke-width="3" stroke-miterlimit="10" d="M298.424,409.37
		c-0.489,1.13-1.765,1.848-2.979,1.749c-0.875-0.235-1.66-0.901-1.898-1.794c-0.541-1.756-0.481-3.704,0.117-5.438
		c-0.359,0.28-0.482,0.741-0.619,1.153c-0.417,1.507-0.434,3.161,0.161,4.625l0.023-0.013c0.29,0.87,1.131,1.324,1.942,1.61
		c-0.403,0.27-0.897,0.315-1.368,0.336c-2.063,0.094-4.098-0.461-5.988-1.246c-0.587-0.284-1.205-0.527-1.742-0.897
		c-0.265-0.557-0.55-1.107-0.76-1.686c-0.13-0.082-0.176-0.248-0.262-0.367c-0.542-0.974-1.165-1.911-1.919-2.734
		c0.284-0.206,0.645-0.195,0.978-0.242c1.203,0.911,2.599,1.722,4.148,1.758c1.037,0.009,2.154-0.435,2.729-1.329
		c0.365-0.951,0.39-1.993,0.468-2.997c0.039-0.427-0.025-0.993,0.406-1.245c0.475-0.376,1.055,0.068,1.448,0.361
		c0.799,0.565,1.155,1.539,1.25,2.48c0.938-0.31,2.093-0.383,2.9,0.283c0.778,0.718,1.135,1.778,1.292,2.801
		C298.896,407.487,298.793,408.481,298.424,409.37z"/>
	<path fill="none" stroke="#1B4476" stroke-width="3" stroke-miterlimit="10" d="M261.955,349.225
		c0.298,0.815,0.63,1.617,0.911,2.438c0.076,0.051,0.229,0.153,0.303,0.205c-0.121,0.106-0.241,0.214-0.361,0.322
		c-0.183-0.166-0.378-0.334-0.45-0.58c-0.29-0.75-0.598-1.494-0.849-2.26C261.657,349.313,261.807,349.271,261.955,349.225z"/>
	<path fill="none" stroke="#1B4476" stroke-width="3" stroke-miterlimit="10" d="M260.165,346.513
		c0.262-0.156,0.553-0.242,0.86-0.234c0.533,0.191,0.989,0.708,0.947,1.298c-0.151,0.461,0.645,0.624,0.371,1.092
		c-0.069,0.025-0.206,0.075-0.275,0.1l0.018,0.038c-0.253,0.094-0.507,0.19-0.759,0.29c-0.17,0.064-0.339,0.128-0.509,0.191
		c-0.014-0.084-0.043-0.255-0.058-0.339C260.079,348.386,259.579,347.313,260.165,346.513z"/>
	<path fill="none" stroke="#1B4476" stroke-width="3" stroke-miterlimit="10" d="M274.306,413.608
		c1.98-0.07,3.961,0.089,5.942,0.042c0.03,1.27-0.492,2.546-1.324,3.5c-1.377,1.437-3.593,1.636-5.43,1.145
		C273.739,416.727,274.095,415.179,274.306,413.608z"/>
	<path fill="none" stroke="#1B4476" stroke-width="3" stroke-miterlimit="10" d="M283.222,412.18
		c-0.526,0.316-1.242,0.117-1.607-0.353c-0.323-0.328-0.247-0.824-0.218-1.237c0.093-0.479,0.554-0.769,0.986-0.91
		c0.726-0.183,1.524,0.417,1.554,1.166C284.006,411.377,283.723,411.964,283.222,412.18z"/>
	<path fill="none" stroke="#1B4476" stroke-width="3" stroke-miterlimit="10" d="M260.353,419.653
		c-0.943-0.596-1.938-1.232-2.563-2.178c-0.883-0.943-1.226-2.31-1.234-3.579c0.079-1.693,0.591-3.396,1.606-4.769
		c0.679-0.926,1.523-1.729,2.479-2.366c-0.371,2.146-0.787,4.283-1.088,6.439c1.807,0.056,3.68,0.233,5.313,1.073
		c0.904-0.424,1.943-0.527,2.917-0.317c0.501,0.125,1.044,0.312,1.354,0.755c0.144,0.315-0.076,0.609-0.247,0.855
		c0.056,0.052,0.165,0.153,0.22,0.204c1.138,1.027,0.981,2.929-0.061,3.961c-0.811,0.688-1.909,0.88-2.938,0.959
		C264.155,420.766,262.132,420.505,260.353,419.653z"/>
	<path fill="none" stroke="#1B4476" stroke-width="3" stroke-miterlimit="10" d="M268.315,405.415
		c-0.883-0.332-1.708-0.802-2.579-1.163c0.435,0.057,0.87,0.149,1.282,0.299C267.456,404.831,267.877,405.135,268.315,405.415z"/>
	<path fill="none" stroke="#1B4476" stroke-width="3" stroke-miterlimit="10" d="M273.459,408.193
		c-2.571-1.214-5.149-2.414-7.716-3.637c-0.451-0.278-0.966-0.021-1.442,0.039c-0.043,0.041-0.127,0.123-0.17,0.164l-0.044-0.004
		c-0.011,0.102-0.033,0.305-0.044,0.406l-0.203,0.081c-0.201,0.078-0.41,0.138-0.626,0.132c-0.413-0.296-0.951-0.438-1.44-0.252
		c-0.489,0.216-0.582,0.805-0.702,1.266c-0.478,2.155-0.82,4.339-1.167,6.52c1.698,0.047,3.417,0.295,4.976,1.001
		c0.146-0.06,0.292-0.118,0.438-0.178c0.155-0.01,0.305-0.054,0.447-0.129c1-0.159,2.022-0.066,2.965,0.314
		c0.063,0.043,0.186,0.131,0.248,0.175c0.189,0.18,0.432,0.352,0.487,0.626c0.061,0.275-0.051,0.544-0.111,0.809
		c0.27,0.318,0.496,0.673,0.708,1.032c0.13,0.583,0.158,1.179,0.116,1.775c-0.108,0.375-0.324,0.713-0.403,1.097
		c-0.662,0.909-1.776,1.343-2.859,1.481c-1.985,0.264-4.029,0.005-5.921-0.632c-0.897-0.285-1.619-0.908-2.384-1.428
		c-0.051,0.297-0.082,0.648,0.152,0.881c0.278,0.255,0.644,0.382,0.978,0.548c2.618,1.269,5.23,2.544,7.874,3.755
		c0.364,0.176,0.745,0.313,1.141,0.395c0.978-0.014,1.94-0.213,2.899-0.379c0.374-0.029,0.573-0.378,0.595-0.719
		c0.817-4.673,1.733-9.33,2.503-14.011c0.011-0.072,0.035-0.215,0.046-0.285C274.555,408.526,273.905,408.464,273.459,408.193z
		 M273.945,408.885c-0.13,0.152-0.494-0.011-0.346-0.209C273.726,408.54,274.058,408.698,273.945,408.885z"/>
	<path fill="none" stroke="#1B4476" stroke-width="3" stroke-miterlimit="10" d="M304.452,370.888
		c-0.008-0.105-0.025-0.316-0.033-0.424c-0.453-0.346-0.944-0.64-1.43-0.937c-0.001-0.73-0.283-1.428-0.435-2.136
		c-0.928-3.325-2.573-6.443-4.754-9.116c-4.847-5.988-12.273-9.695-19.921-10.302c-0.056,0.004-0.165,0.012-0.219,0.017
		c-0.886-0.152-1.789-0.136-2.683-0.136c-4.194,0.015-8.367,0.955-12.192,2.661c0.098,0.31,0.204,0.618,0.33,0.92
		c0.21,0.106,0.448,0.268,0.322,0.54c-0.31,0.499-1.035,0.748-1.585,0.546c-0.24-0.156-0.069-0.439-0.038-0.653
		c-0.088-0.242-0.18-0.482-0.274-0.722c-2.733,1.376-5.224,3.231-7.348,5.433c-3.164,3.25-5.46,7.348-6.508,11.766
		c-0.084,0.385-0.212,0.769-0.186,1.168c-0.468,0.33-0.965,0.618-1.441,0.938c0.006,0.111,0.016,0.332,0.021,0.443
		c-0.068,1.485-0.054,2.983-0.008,4.471c0.345,0.216,0.702,0.414,1.074,0.58c0.19,2.585,0.84,5.135,1.873,7.512
		c-0.864,1.656-1.42,3.506-1.346,5.389c0.076,2.98,1.587,5.761,3.651,7.846c0.437,0.411,0.82,0.891,1.34,1.199
		c1.066,1.021,2.337,1.81,3.609,2.55c0.605,0.317,1.188,0.692,1.841,0.904c0.169,0.142,0.379,0.218,0.578,0.312
		c5.064,2.258,10.633,3.219,16.155,3.298c5.556,0.024,11.153-0.888,16.309-3c0.017-0.354,0.001-0.706,0.05-1.057
		c0.199-0.508,0.786-0.909,1.338-0.735c0.425,0.078,0.722,0.442,1.116,0.57c2.09-1.114,4.109-2.48,5.681-4.268
		c1.953-1.945,3.293-4.583,3.465-7.357c0.129-1.968-0.432-3.917-1.334-5.65c0.704-1.651,1.268-3.382,1.544-5.158
		c0,0,0.277-1.561,0.347-2.362c0.364-0.213,0.731-0.434,1.062-0.695C304.5,373.796,304.456,372.339,304.452,370.888z"/>
</g>
<g id="图层_4">
	<path fill="none" stroke="#1B4476" stroke-width="3" stroke-miterlimit="10" d="M266.895,424.128c0,0,2.5,5.402,7.263,4.404
		C278.921,427.533,266.895,424.128,266.895,424.128z"/>
</g>
<g id="图层_6">
	<path fill="#A8C5E2" d="M302.808,375.934c0.119-0.637,0.182-1.292,0.182-1.96c0-6.22-5.373-11.261-12.001-11.261
		s-12.001,5.041-12.001,11.261c0,1.122,0.176,2.205,0.501,3.228C287.215,376.674,295.205,377.98,302.808,375.934z"/>
	<path fill="#D2E3EF" d="M302.99,375.358c0-6.219-5.373-11.26-12.001-11.26s-12.001,5.041-12.001,11.26
		C278.987,376.48,302.99,376.027,302.99,375.358z"/>
	<ellipse fill="#D2E3EF" cx="290.706" cy="373.192" rx="10.938" ry="11.013"/>
	<ellipse fill="#A8C5E2" cx="291.282" cy="372.91" rx="6.734" ry="6.864"/>
	<ellipse fill="#2A4175" cx="291.285" cy="372.431" rx="6.427" ry="6.675"/>
	<ellipse fill="#FFFFFF" cx="291.285" cy="372.431" rx="6.151" ry="6.387"/>
	<ellipse fill="#2A4175" cx="290.569" cy="372.579" rx="4.775" ry="5.398"/>
	<ellipse fill="#3483A2" cx="290.57" cy="372.579" rx="4.513" ry="5.102"/>
	<ellipse fill="#231815" cx="290.241" cy="371.878" rx="3.563" ry="3.834"/>
	<circle fill="#FFFFFF" cx="292.945" cy="374.456" r="1.511"/>
	<circle fill="#FFFFFF" cx="289.368" cy="369.943" r="1.079"/>
	<path fill="#A8C5E2" d="M271.905,376.036c0.13-0.634,0.204-1.288,0.215-1.956c0.102-6.219-5.24-11.349-11.931-11.458
		c-6.691-0.109-12.198,4.842-12.3,11.061c-0.018,1.122,0.142,2.208,0.453,3.236C256.152,376.517,264.196,377.957,271.905,376.036z"
		/>
	<path fill="#D2E3EF" d="M272.097,375.464c0.102-6.218-5.239-11.348-11.931-11.457c-6.691-0.11-12.198,4.842-12.3,11.061
		C247.848,376.188,272.087,376.133,272.097,375.464z"/>
	
		<ellipse transform="matrix(0.9999 0.0164 -0.0164 0.9999 6.1554 -4.2106)" fill="#D2E3EF" cx="259.732" cy="373.095" rx="11.043" ry="11.013"/>
	
		<ellipse transform="matrix(0.9999 0.0164 -0.0164 0.9999 6.1496 -4.2295)" fill="#A8C5E2" cx="260.848" cy="372.677" rx="6.934" ry="7.018"/>
	
		<ellipse transform="matrix(0.9999 0.0164 -0.0164 0.9999 6.1439 -4.2258)" fill="#2A4175" cx="260.716" cy="372.481" rx="6.461" ry="6.674"/>
	
		<ellipse transform="matrix(-0.9999 -0.0164 0.0164 -0.9999 515.2386 749.1896)" fill="#FFFFFF" cx="260.693" cy="372.481" rx="6.159" ry="6.387"/>
	
		<ellipse transform="matrix(-0.9999 -0.0164 0.0164 -0.9999 516.504 749.4501)" fill="#2A4175" cx="261.326" cy="372.606" rx="4.821" ry="5.433"/>
	
		<ellipse transform="matrix(-0.9999 -0.0164 0.0164 -0.9999 516.5096 749.2407)" fill="#3483A2" cx="261.326" cy="372.503" rx="4.557" ry="5.102"/>
	
		<ellipse transform="matrix(-0.9999 -0.0163 0.0163 -0.9999 516.2377 748.0438)" fill="#231815" cx="261.165" cy="371.92" rx="3.597" ry="3.834"/>
	
		<ellipse transform="matrix(0.9999 0.0165 -0.0165 0.9999 6.2204 -4.3036)" fill="#FFFFFF" cx="263.665" cy="374.457" rx="1.478" ry="1.503"/>
	<circle fill="#FFFFFF" cx="260.328" cy="369.963" r="1.132"/>
	<path fill="#A8C5E2" d="M254.071,364.219c0.638-0.189,1.708-0.867,2.984-1.093c0.833-0.158,1.707,0.611,1.037,1.075
		c-2.357,0.589-3.703,1.228-5.002,2.345c-0.242,0.312-0.966,3.792-1.073,5.015s-0.048,2.875,0.173,4.236s0.994,4.215,2.041,6.102
		c0.172,0.221-0.079,0.45-0.149,0.659c-2.068-1.193-3.659-3.143-4.548-5.347c-0.962-2.406-1.03-5.154-0.18-7.604
		c0.831-2.441,2.557-4.56,4.772-5.879C254.107,363.893,254.089,364.056,254.071,364.219z"/>
</g>
<g id="图层_1">
	<path display="none" fill="#2A4175" d="M328.51,3.96c3.149-0.71,6.199-2.12,9.489-1.97c2.62-0.01,5.03,1.17,7.48,1.98l0.46,0.17
		c-0.03,1.3,0.609,1.93,1.92,1.899l0.27,0.61c1.221,2.57,2.021,5.31,2.091,8.16c-1.311,2.029-2.471,4.14-3.46,6.34l-1,0.06
		c-1.57-0.16-2.86,1.16-2.98,2.67l-0.94,0.141c-1.27,0.05-1.97,0.68-2.09,1.88l-0.79,0.1c-1.88-0.06-3.43,1.05-4.319,2.63
		l-0.78,0.75l-0.3,0.16l-0.3,0.16l-0.83,0.41c-6.101,2.65-12.07,5.64-17.841,8.95l-0.76,0.37l-0.33,0.149l-0.26,0.23l-1.15,0.18
		c-1.22,0.11-3,0.32-3.199,1.82l-1.15,0.689c-0.09,0.05-0.27,0.16-0.36,0.21l-1.649,0.84c-0.08,0.04-0.26,0.131-0.351,0.171
		l-1.619,0.81c-0.091,0.05-0.29,0.15-0.381,0.2l-1.529,0.62l-0.351,0.13l-0.27,0.25l-0.851,0.31c-4.58,1.32-8.72,3.74-12.97,5.84
		l-0.5,0.261c-0.46,0.279-1.37,0.85-1.83,1.14c-1.18,0-2.859,0.26-3,1.74c1.29,0.35,2.36-0.021,3.23-1.09
		c1.229,0.26,2.52,0.1,3.58-0.631c0.439-0.119,1.319-0.35,1.76-0.46c2.21,0.25,4.54-0.02,6.32-1.47c0.42-0.14,1.27-0.41,1.689-0.55
		c6.83-0.61,13.51-2.32,20.36-2.83c13.6-1.76,27.359-1.45,41.05-1.11c10.44,0.82,20.81,2.351,31.14,4.101l0.431,0.1
		c2.85,0.811,5.75,1.45,8.689,1.88l0.641,0.311c0.819,0.71,1.77,1.01,2.84,0.89l1.229,0.03c1.42,1.62,3.61,2.17,5.71,1.899
		l1.261-0.01c0.479,0.23,1.449,0.69,1.93,0.92l1.12,0.16c1.13,1.63,3.12,1.95,4.979,1.86l1.021,0.069
		c0.479,0.23,1.439,0.7,1.92,0.94l0.88,0.24c0.95,1.29,2.49,1.74,4.04,1.77l1.08,0.24c0.91,1.23,2.33,1.93,3.89,1.79l1.101,0.06
		c0.51,1.65,2.34,2.021,3.859,1.9l1.42,0.03c0.15,0.12,0.431,0.359,0.58,0.479l1.41,0.74l0.28,0.18l0.33,0.12l1.55,0.65
		c0.09,0.04,0.26,0.12,0.35,0.16l1.631,0.899c0.08,0.05,0.239,0.141,0.319,0.19l1.181,0.78c0.26,0.159,0.779,0.489,1.04,0.649
		c1.3,0.71,2.63,1.39,3.96,2.08c0.369,0.21,1.13,0.61,1.51,0.81c1.63,0.921,3.28,1.811,4.979,2.62c0.08,0.04,0.24,0.12,0.32,0.16
		l1.14,0.61c0.41,1.83,2.261,2.7,4,2.67l0.49,0.04c3.75,3.13,7.94,5.689,12.141,8.16l0.35,0.489c0.42,1.11,1.18,1.62,2.28,1.521
		l0.68-0.05c0.2,0.229,0.6,0.689,0.81,0.92c2.73,3.229,6.23,5.68,9.721,8.02l0.25,0.19c2.899,2.6,5.14,6.07,8.77,7.75l0.68,0.36
		l0.15,1.01c-0.01,2.029,1.79,3.6,3.771,3.64l0.84,0.14l0.33,0.61c1.71,3.59,5.01,5.99,7.81,8.67c0.22,0.2,0.66,0.59,0.88,0.79
		l0.25,0.46c1.63,3.38,4.23,6.13,6.78,8.83l0.1,0.13c2.101,3.53,4.38,6.98,7.141,10.05l-0.011,0.511
		c-0.079,1.279,0.53,1.949,1.83,2.01l0.181,1.02c0.14,1.75,0.83,3.78,2.81,4.101l0.13,0.819c-0.029,1.82,0.971,3.37,2.58,4.221
		l0.97,1.01c0.051,0.07,0.141,0.229,0.19,0.31l0.68,1.551l0.141,0.35l0.279,0.25l0.17,1.17c0.08,1.21,0.29,2.99,1.801,3.19
		l0.68,1.149c0.06,0.101,0.18,0.311,0.25,0.41l0.7,1.521c0.069,0.119,0.2,0.369,0.27,0.489l0.34,1.2
		c0.65,2.38,1.641,4.67,3.011,6.73l-0.021,0.52c-0.16,1.47,0.24,3.28,1.79,3.88l0.141,0.51c1.05,4.07,2.5,8.011,3.989,11.931
		l0.07,0.59c-0.03,1.85,0.19,3.83,1.7,5.1c0.08,0.48,0.24,1.44,0.319,1.92c0.21,0.49,0.62,1.471,0.82,1.96
		c0.04,0.5,0.11,1.511,0.15,2.011c-0.23,1.069,0,2.05,0.68,2.939l0.271,1.17c-0.221,1.46-0.211,3.83,1.81,3.88l1.12,0.2
		c0.09,1.21,0.76,1.82,2.01,1.851l1,0.109c0.03,1.301,0.7,1.891,1.99,1.771l1.21-0.08c1.42,3.88,0.8,8.07,0.899,12.11
		c-0.109,11.27,0.23,22.56-0.199,33.829c0.01,2.711,0.29,5.421,0.229,8.141c-1.479,0.26-3.43-0.49-4.439,0.979
		c-0.67,0.03-2.011,0.08-2.681,0.11c-1.989,6.06-1.66,12.6-3.359,18.7c-2.41,4.02-1.771,8.899-3.641,13.1
		c-1.75,4.021-2.38,8.471-4.71,12.24c1.74,5.07,3.2,10.26,5.431,15.16c2.399,8.72,3.35,17.81,3.38,26.84
		c0.1,7.811-2.601,15.21-4.4,22.7c-2.91,6.75-5.35,13.79-9.56,19.88c-1.511,1.76-2.91,3.6-4.09,5.59l-0.03,0.04
		c-5.88,7.3-11.71,14.771-19.01,20.75c-2.221,1.771-4.41,3.62-6.221,5.84c-0.21,0.24-0.64,0.74-0.859,0.99l-0.521,0.25
		c-2.63,1.11-4.939,2.86-6.859,4.97l-0.601,0.011c-1.28-0.061-1.97,0.54-2.09,1.81l-0.94,0.11c-1.26,0.05-1.93,0.689-2.01,1.92
		l-0.899,0.03c-1.091,0.01-1.83,0.569-2.2,1.689l-0.33,0.23c-1.01,0.47-1.98,0.979-2.93,1.54c-0.08,1.069,0.22,2.14,0.859,3.02
		c3.91,0.64,7.96,0.36,11.8,1.48l0.88,0.21c0.79,1.949,3.021,2.38,4.86,2.71l0.51,0.12c2.19,2.22,4.37,4.47,6.761,6.489
		c0.31,0.431,0.939,1.28,1.25,1.7l0.159,0.34l0.271,0.26L519,461.02c-0.01,1.25,0.65,2.35,1.58,3.17l0.9,0.99
		c0.13,0.12,0.38,0.35,0.51,0.46l-0.06,1.45c0.22,0.47,0.68,1.409,0.91,1.88c-0.54,1.81-1.851,5.029,1.22,5.09
		c0.979,2.99,1.32,6.14,1.61,9.26c0.449,8.87-0.801,18.2-5.46,25.92c-4.921,8.221-13.811,13.78-23.271,14.99
		c-4.11,0.57-7.82,2.66-11.92,3.27c-15.83,2.061-31.7-1.46-46.68-6.399c0.979,4.34,1.84,8.72,2.79,13.07
		c4.71-2.141,9.58-4.33,14.85-4.45c5.67-0.34,10.93,2.21,16.08,4.229c-0.13,0.46-0.38,1.38-0.5,1.84
		c-1.15,3.511-2.55,6.921-3.85,10.381c1.819,1.29,3.63,2.59,5.3,4.079c2.64,2.851,4.3,6.41,5.8,9.95
		c3.74-0.02,7.57-0.16,11.22,0.851c4.92,1.25,9.76,3.68,14.97,3.1c2.32-1.3,4.29-3.439,7.03-3.84c2.51-0.521,5.021,0.29,7.29,1.32
		c3.55,2.43,5.05,6.56,6.01,10.569c-0.529,0.28-1.6,0.83-2.14,1.11c0.73,0.82,1.47,1.65,2.2,2.5c0.41,3.47-0.021,6.95-0.3,10.42
		L525,587.15c-1.109,0.561-1.449,1.46-1.01,2.7l0.15,0.67c-2.62,4.19-4.521,8.94-8.271,12.31c-7.729,7.17-18.569,9.71-28.83,10.17
		c-9.01,0.461-17.829-2.22-25.829-6.17c-5.881-3.119-12.921-1.119-18.091,2.46c-5.64,3.87-11.47,7.49-17.819,10.07
		c-2.931,5.33-5.82,10.71-8.961,15.92c-6.779,7-11.38,15.82-18.3,22.7c-9.899,8.33-23.689,8.98-36.02,8.29
		c-8.46-0.7-17.11-1.84-24.931-5.28c-4.09-1.819-5.939-6.109-7.02-10.16c-6.44,0.04-12.96-0.619-19.06-2.79
		c-7.65-2.579-14.181-7.569-20.061-12.97c-5.46-5.53-9.45-12.28-13.92-18.58c-13.76,6.55-28.82,10.34-44.01,11.32
		c-4.92,0.02-10.82,0.57-14.61-3.21c-3.06-4.03-0.29-10.53,4.43-11.87c1.841-1.15,5.33-0.94,5.4-3.69
		c-2.23-2.699-5.94-3.42-9.24-3.77c-2.859-0.14-6.41-0.39-8.29,2.24c-3.739,4.46-8.46,9.17-14.67,9.35
		c-4.43,0.29-9.46-3.07-9.35-7.83c-0.12-2.33,1.1-4.38,2.05-6.399l0.33-0.67l1.15-0.101c1.55,0.09,2.819-1.16,3.02-2.64l0.93-0.21
		c1.931,0.37,4.71-2.761,1.601-3.04l-1.681-0.34c-1.25-0.771-3.149-1.261-4.119,0.21l-1.341-0.12c-1.069-0.17-1.93,0.21-2.58,1.13
		l-1.04,0.14c-0.489,0.24-1.46,0.7-1.939,0.931L182.01,598c-0.479,0.23-1.449,0.681-1.939,0.91l-1.08,0.07
		c-0.47,0.24-1.42,0.74-1.89,0.99l-0.74,0.09c-2.84,0-5.69-0.03-8.53-0.12l-1.21-0.04c-0.11-0.08-0.33-0.229-0.439-0.3l-0.78-0.53
		c-2.7-2.31-4.11-5.64-3.641-9.189l-0.02-0.471c2.04-1.699,3.93-3.58,5.81-5.449l0.65-0.54c0.09-0.03,0.271-0.101,0.36-0.131
		l1.5-0.279c0.479-0.21,1.439-0.65,1.93-0.86l1.15-0.12c1.229,0.48,3.06-1.67,1.08-1.93l-0.681-0.23
		c-4.97-1.729-10.28-1.939-15.35-3.25c-4.101-0.85-7.84-2.8-11.63-4.489l-0.58-0.25l0.04-0.82c0.02-1.09-0.5-1.89-1.561-2.41
		l-0.979-0.86c-0.11-0.1-0.34-0.3-0.46-0.399l0.02-1.4c-0.229-0.479-0.7-1.45-0.93-1.93l-0.3-0.521c0.12-2.829-0.13-6.14,2.27-8.159
		c3.7-3.391,9-2.311,13.4-1.32l0.13,0.04c2.91,1.12,5.87,2.12,8.88,2.99l0.38,0.12c0.59,1.67,2.561,1.72,4.05,1.77l1.17,0.1
		c0.48,0.23,1.431,0.7,1.91,0.94l1.09,0.05c0.48,0.24,1.44,0.72,1.92,0.96l0.98,0.2c0.79,0.76,1.72,1.07,2.8,0.92l1.23-0.06
		c0.47,0.25,1.41,0.729,1.89,0.979l1.061,0.15c0.8,0.72,1.739,1.04,2.819,0.96l1.19,0.08c0.859,0.649,1.84,0.939,2.92,0.84
		l1.1,0.149c0.87,0.681,1.86,0.94,2.95,0.801c0.35,0.01,1.05,0.02,1.41,0.02c4.81,1.521,9.82,2.13,14.78,3
		c-0.5-0.62-0.98-1.25-1.45-1.87l-0.61-0.859c-1.26-2.08-2.649-4.061-4.04-6.04l-0.04-0.25c-0.14-1.181-0.29-3.021-1.819-3.12
		l-0.671-1.16c-0.06-0.1-0.159-0.32-0.21-0.43l-0.319-1.4c-0.2-0.49-0.61-1.479-0.811-1.97l-0.27-0.99
		c-2.93-9.88-2.641-20.31-1.021-30.38c0.051-0.23,0.16-0.68,0.221-0.9c1.109-3.149,1.92-6.399,3-9.55
		c0.199-0.55,0.609-1.65,0.819-2.2c-0.68-0.649-1.359-1.29-2.04-1.92c4.32,0.84,4.44-5.03,6.561-7.53
		c1.25-2.09,2.62-4.119,4.069-6.079c2.15-2.771,4.4-5.46,6.83-7.99c3.54-3.54,7.471-6.66,11.42-9.73
		c1.681-1.189,2.03-3.34,2.881-5.08c1.01-2.659,2.979-4.76,4.81-6.88c-14.45-5.229-28.53-11.58-41.72-19.49
		c-2.721-1.699-5.4-3.479-8.25-4.96c-1.061-1.689-2.65-2.859-4.38-3.779c-4.91-3.04-8.891-7.29-13.641-10.55
		c-3.89-3.311-7.489-7.051-9.96-11.561c-9.21-10.07-16.74-21.939-20.96-34.97c-3.5-9.38-5.06-19.48-4.7-29.48
		c0.07-2.18-0.26-4.51,0.811-6.51c0.43-4.72,1.149-9.52,2.93-13.93c0.21-2.19,1.71-4.29,0.75-6.471c0.23-0.26,0.71-0.779,0.95-1.04
		c0.19-0.51,0.58-1.52,0.77-2.02l-0.05-1.35c0.141-0.11,0.431-0.33,0.57-0.44l0.89-1.1c1.601-1.681,0.271-3.94-1.14-5.2l-0.311-0.91
		c-0.229-0.48-0.689-1.45-0.92-1.94l-0.08-1.159c0.061-1.811-0.199-3.811-1.869-4.851l-0.12-1.109
		c-0.23-0.471-0.71-1.421-0.94-1.891l0.07-1.25c0.18-1.08-0.13-2-0.91-2.78l-0.15-1.02c0.101-1.08-0.17-2.05-0.8-2.931l-0.22-1.079
		c0.12-1.08-0.14-2.061-0.771-2.94l-0.21-0.44c-1.1-6.84-2.5-13.64-3.189-20.54c-2.34,0.051-4.67,0.08-7.01,0.131
		c-0.15-15.061-0.011-30.131-0.101-45.19c-0.09-2.14,0.351-4.24,1.141-6.21l1.21,0.09c1.27,0.11,1.97-0.479,2.1-1.76l0.91-0.11
		c1.2-0.02,1.899-0.609,2.109-1.76l0.58-0.25c0.36-0.15,1.061-0.46,1.41-0.61c0.87-2.939,1.391-5.96,1.78-8.989l0.07-0.53
		c0.97-0.64,1.319-1.561,1.04-2.78l-0.07-1.13c1.91-1.14,2.07-3.7,1.95-5.68l-0.101-1.511c0.28-0.409,0.851-1.25,1.13-1.659
		l0.021-1.16c0.24-0.48,0.71-1.431,0.95-1.91l0.06-1.05c0.26-0.46,0.76-1.4,1.021-1.86l-0.021-1.07
		c1.82-0.409,1.891-2.479,1.97-3.97l0.221-0.89c1.239-0.91,1.989-2.33,1.85-3.88l0.07-1.08c1.42-0.32,1.899-2.05,1.71-3.32
		l-0.03-0.5c2.11-3.01,3.55-6.4,5.04-9.75l0.28-0.59c1.45-0.2,1.84-1.89,1.92-3.11l0.08-0.66c1.87-0.479,2.79-2.42,2.71-4.22
		l0.02-0.34c2.74-3.47,5.4-7.09,7.12-11.2l0.16-0.38c0.18-0.16,0.53-0.49,0.71-0.66c3.21-2.77,5.14-6.64,7.98-9.75
		c2.659-3.42,5.88-6.42,8.18-10.12c0.18-0.18,0.55-0.529,0.729-0.71c4.03-2.59,7.07-6.38,10.221-9.93
		c-0.99,0.22-1.98,0.44-2.96,0.66l-1.12,0.21c-0.46,0.28-1.38,0.84-1.84,1.12L186,106.99c-0.479,0.24-1.439,0.71-1.92,0.94
		l-1.06,0.06c-0.49,0.23-1.45,0.7-1.94,0.93l-1.07,0.07c-0.489,0.23-1.449,0.69-1.939,0.92l-1.04,0.101
		c-1.85-0.07-3.84,0.21-5.021,1.81l-1.069,0.17c-0.48,0.23-1.44,0.71-1.92,0.95l-1.03,0.04c-0.48,0.24-1.43,0.72-1.91,0.96
		l-1.12,0.05c-0.479,0.22-1.45,0.67-1.939,0.9l-0.57,0.18c-3.13,0.67-6.18,1.68-9.14,2.88l-0.44,0.021
		c-0.479,0.22-1.439,0.659-1.93,0.869l-0.391,0.171c-2.79,0.539-5.609,1.21-8.479,1.069c-3.21-0.689-6-2.5-8.61-4.41
		c-0.72-1.76-1.489-3.51-2.52-5.109l-0.101-0.19c-0.89-2.43-1.069-5.03-1.14-7.59l0.32-0.89c0.25-0.471,0.739-1.41,0.979-1.88
		l0.01-0.381c1.461-1.899,2.95-3.779,4.33-5.739l0.74,0.029c1.12,0.03,1.88-0.529,2.29-1.68l0.82-0.64l0.25-0.17l0.27-0.141
		l0.83-0.37c5.931-2.54,11.851-5.34,17.181-8.979l0.56-0.4c0.08-0.05,0.24-0.149,0.32-0.2l1.649-0.899
		c0.09-0.05,0.28-0.141,0.38-0.18l1.53-0.66l0.35-0.13l0.271-0.24l1.479-0.83c0.08-0.04,0.25-0.13,0.341-0.17l1.67-0.78
		c0.09-0.04,0.25-0.11,0.34-0.15l0.939-0.39c3.48-1.28,6.721-3.06,9.87-5l0.78-0.36l0.31-0.119l0.271-0.16l1.37-0.771
		c0.13-0.09,0.399-0.27,0.53-0.359l1.55-0.63c0.109-0.04,0.33-0.131,0.45-0.171l0.909-0.329c3.15-0.961,6.341-2.051,8.92-4.16
		l0.73-0.311c0.1-0.04,0.32-0.13,0.42-0.17l0.83-0.29c2.48-0.689,4.81-1.78,7.08-2.99l0.35-0.069c1.21-0.2,3.051-0.34,3.25-1.88
		l1.03-0.051c1.57,0.181,2.97-0.56,3.93-1.77l1.15-0.89c0.08-0.03,0.229-0.101,0.31-0.141l0.94-0.31
		c2.49-0.601,4.93-1.51,6.979-3.09h0.69c2.19,0.42,4.7-1.061,3.95-3.561l-0.05-1.399c0.22-0.48,0.68-1.44,0.909-1.92l0.29-0.94
		c1.48-0.771,2.41-2.16,2.591-3.82l0.489-1.68c0.051-0.04,0.16-0.13,0.21-0.18l1.601-0.41c1.04-0.17,1.77-0.75,2.21-1.75l0.81-0.73
		c0.101-0.09,0.3-0.27,0.41-0.37l0.86-0.18c6.609-2.31,14.06-0.3,18.83,4.75c1.38,1.7,3.34,0.271,4.76-0.57
		c3.65-2.399,7.78-3.92,11.5-6.189l0.65-0.351l0.29-0.149l0.27-0.16l1.37-0.79c0.14-0.09,0.399-0.25,0.54-0.34l1.5-0.69
		c0.12-0.05,0.359-0.16,0.479-0.21l1.5-0.66l0.341-0.149l0.239-0.3l1.391-0.57l0.359-0.13l0.25-0.28l1.4-0.59l0.33-0.12l0.28-0.189
		l1.449-0.851c0.101-0.05,0.29-0.16,0.391-0.21l1.56-0.61l0.34-0.119l0.28-0.221l0.86-0.42c8.659-3.54,16.739-8.31,25.159-12.38
		c2.7-1.3,5.48-2.53,7.811-4.46l0.67-0.49c0.08-0.05,0.24-0.149,0.32-0.2l1.52-0.67l0.37-0.149l0.24-0.29l1.3-0.16
		c1.25-0.03,2.9-0.37,3.24-1.82l0.91-0.529c0.13-0.12,0.399-0.37,0.54-0.49L328.51,3.96 M333.41,12.5
		c-22.5,11.17-44.689,22.971-67.36,33.8c-4.619,2.511-9.159,5.211-14.1,7.051c-0.36,0.949-0.71,1.89-1.06,2.84
		c1.119,0.06,2.31,0.71,3.43,0.28c20.12-7.87,39.19-18.091,58.72-27.28c9.53-5.021,19.82-9.12,28.01-16.271
		C339.07,10.64,335.78,11.32,333.41,12.5 M236.03,47.3c-4.23,5.78-0.62,13.53,4.29,17.591c0.11,0.609,0.32,1.84,0.42,2.449
		c1.23-0.46,2.45-0.92,3.68-1.38c1.82-0.72,3.65-1.42,5.48-2.1l-0.13-0.271c0.5-0.18,1.489-0.54,1.989-0.72
		c1.98-3.38-3.77-4.56-2.68-7.89c0.3-4.26-2.99-7.99-6.84-9.37C240.02,45.55,237.92,46.17,236.03,47.3 M254.95,76.21
		c0.71,2.24,1.47,4.471,2.38,6.65c1.521,0.77,3.24,1.93,2.33,3.9c-2.24,3.6-7.479,5.399-11.45,3.939c-1.729-1.13-0.5-3.17-0.27-4.72
		c-0.641-1.75-1.3-3.48-1.98-5.21c-19.739,9.939-37.729,23.34-53.069,39.24c-22.851,23.47-39.44,53.069-47.011,84.979
		c-0.609,2.78-1.529,5.55-1.34,8.44c-3.38,2.38-6.97,4.46-10.41,6.77c0.04,0.8,0.11,2.4,0.15,3.2
		c-0.49,10.729-0.39,21.55-0.06,32.29c2.489,1.56,5.069,2.99,7.76,4.189c1.37,18.67,6.069,37.091,13.529,54.261
		c-6.239,11.96-10.26,25.32-9.72,38.92c0.55,21.53,11.46,41.61,26.37,56.67c3.15,2.97,5.92,6.43,9.68,8.66
		c7.7,7.38,16.881,13.07,26.07,18.42c4.37,2.29,8.58,5,13.3,6.53c1.221,1.02,2.74,1.569,4.17,2.25
		c36.58,16.31,76.801,23.25,116.69,23.819c40.13,0.181,80.561-6.41,117.8-21.67c0.12-2.55,0.011-5.1,0.36-7.63
		c1.44-3.67,5.68-6.57,9.67-5.31c3.07,0.56,5.21,3.189,8.061,4.12c15.1-8.051,29.68-17.921,41.029-30.83
		c14.11-14.051,23.79-33.101,25.03-53.141c0.93-14.21-3.12-28.29-9.64-40.81c5.08-11.93,9.159-24.431,11.149-37.261l0.26,0.23
		c0.841-5.75,1.74-11.5,2.25-17.29c2.631-1.54,5.28-3.13,7.671-5.021c0.55-10.439,0.229-20.97,0.199-31.439
		c-0.06-0.76-0.18-2.29-0.239-3.061c-3.271-2.5-6.82-4.619-10.33-6.77c-0.011-5.271-2.04-10.31-3.141-15.42
		c-6.7-24.021-18.58-46.54-34.34-65.851C472.85,89.01,419.21,62.23,363.97,57.85c-0.4,0.029-1.19,0.09-1.58,0.12
		c-6.4-1.101-12.92-0.98-19.38-0.98C312.72,57.1,282.58,63.89,254.95,76.21 M221.81,62.55l-0.181,0.23
		c-2.479,0.72-4.859,1.71-7.199,2.78C202.8,70.82,191.14,76.01,179.61,81.5c-11.91,6.03-23.73,12.271-35.59,18.4
		c-2.471,1.18-4.62,3.12-5.141,5.92l0.48-0.23c0.56,1.49,1.13,2.99,1.66,4.49c1.96,0.65,4.02,0.73,5.96-0.05
		c22.67-7.46,45.479-14.55,67.649-23.44c4.17-1.739,8.521-3.119,12.46-5.35c3.561-2.01,4.431-6.28,6.69-9.37
		c1.58-1.689,3.45-3.109,4.94-4.899c-2.5-2.601-4.33-5.73-5.931-8.94C229.11,59.49,225.42,60.92,221.81,62.55 M245.74,67.8
		c-1.31,0.211-1.8,0.9-1.47,2.091c1.29,3.89,2.89,7.67,4.29,11.52c0.859,2.53,2.569,5.18,1.26,7.88c1.77-0.279,3.54-0.6,5.3-0.979
		c0.87-0.78,1.74-1.561,2.61-2.33c-0.54-0.37-1.641-1.11-2.19-1.48c-2.03-5.93-4.43-11.72-6.58-17.609
		C247.89,67.22,246.81,67.52,245.74,67.8 M464.961,438.06c-3.11,1.82-2.65,5.91-2.931,8.99c-0.56,7.25-0.74,14.779-3.38,21.649
		c-4.15,6.46-12.22,9.66-19.71,9.601c-11.19-0.261-21.271-6.12-29.96-12.7c-2.4,0.34-5.01,0.26-7.061,1.75
		c5.45,5.95,9.94,12.72,13.86,19.75c0.62,0.86,0.95,2.06,1.89,2.649c1.521,4.181,3.58,8.16,5.49,12.181
		c3.88,2.67,8.34,4.43,12.58,6.479c13.65,5.67,28.351,9.681,43.25,9c3.4-0.149,6.971-0.479,9.88-2.43
		c-5.859-2.06-11.939-5.34-14.029-11.63l-0.17,0.09c-4.29-10.57-4.171-22.52-1.16-33.4c0.989-2.979,1.88-6.31,4.47-8.329
		c-4.32,12.52-4.75,26.59-0.84,39.27c1.72,6.45,7.39,11.26,13.71,12.96c8.77,0.71,17.99-4.47,21.52-12.63
		c2.67-6.42,3.41-13.6,2.36-20.45c-1.13-7.39-3.71-15.05-9.33-20.229c-5.83-4.811-14.17-4.28-20.95-2.051
		c-0.689-6.8-3.26-13.83-9.029-17.909C472.58,438.551,468.39,435.341,464.961,438.06 M435.95,467.5
		c3.771,0.24,9.141,0.671,11.351-3.02l0.439-0.16l0.73,0.311c0.149-0.381,0.439-1.141,0.59-1.521
		C444.7,464.62,440.29,465.961,435.95,467.5 M276.27,464.341c6.29,2.609,12.25,6,18.63,8.399c-3.17-2.02-6.21-4.22-9.37-6.24
		C282.55,465.421,279.41,464.75,276.27,464.341 M265.9,466.82c-0.311,0.3-0.92,0.891-1.23,1.19l-0.319-0.03
		c-0.08,0.73-0.24,2.2-0.32,2.93l-1.47,0.59c-1.45,0.561-2.96,0.99-4.521,0.95c-2.979-2.14-6.87-3.17-10.399-1.819
		c-3.53,1.56-4.2,5.81-5.07,9.14c-3.45,15.57-5.92,31.34-8.43,47.09c12.26,0.34,24.68,2.13,35.939,7.23
		c1.05-0.431,2.11-0.851,3.16-1.28c1.12-0.07,2.2-0.39,3.23-0.93c7.22-1.15,14.609-0.48,21.42,2.27c0.449,0.311,1.34,0.94,1.79,1.26
		c1.369,1.301,3.119,2.54,3.52,4.521c0.44,1.99-0.37,3.93-0.8,5.84c1.95,2.3,3.58,4.86,5.11,7.46c0.939,4.21,1.14,8.51,0.84,12.82
		c-0.78,2.71-2.34,5.149-2.91,7.92c-4.78,6.569-12.83,9.7-20.65,10.7c-14.34,1.909-29.1,0.04-42.77-4.561
		c-6.48-2.06-11.69-6.56-17.221-10.31c-0.369,2.14-0.59,4.68,1.101,6.359c2.01,1.84,4.649,2.761,7.06,3.96
		c18.91,9.16,37.78,18.37,56.87,27.12c2.63,1.271,5.38,2.26,8.24,2.851c7.06-0.101,14.01-1.54,20.94-2.74
		c2.699-0.21,4.14-2.73,4.3-5.19c5.899-33.75,12.52-67.39,18.08-101.199c0.08-0.521,0.25-1.551,0.33-2.061
		c-1.75-3.689-6.45-4.14-9.671-6.09c-18.569-8.771-37.189-17.44-55.729-26.271C273.06,464.53,269.34,466.39,265.9,466.82
		 M389.23,469.08c0.14,9.07-0.07,18.15-0.8,27.19c-0.511,2.51,0.01,5.99-2.721,7.36c-4.81,2.51-10.34,2.909-15.6,3.819
		c5.72,4.34,11.86,8.08,17.68,12.261c-1.18-3.69-2.38-7.801-0.46-11.48c2.49-6.53,11.15-9.25,17.05-5.65
		c7.131,3.561,8.21,14.9,1.761,19.641c-2.78,2.6-6.65,2.85-10.24,2.979c4.51,3.33,9.02,6.79,13.96,9.471
		c2.72-2.311,3.27-6.5,6.5-8.311c2.66-0.72,6.53-0.6,7.92,2.26c2.13,4.17,3.33,8.74,5.22,13.03c0.431,0.97,1.44,1.5,2.19,2.21
		c-3.29-27.93-14.07-55.5-32.92-76.61C395.56,467.69,392.32,468.08,389.23,469.08 M294.74,468c6.68,5.12,13.82,9.641,20.81,14.33
		c8.851,4.65,18.061,8.58,27.04,12.971c1.16,2.01,1.471,4.29,1.561,6.569c19.49,13.16,38.88,26.46,58.38,39.601
		c2.98,1.76,5.36-1.891,6.25-4.3c-31.96-22.36-64.26-44.29-96.37-66.46C306.79,468.83,300.61,468.86,294.74,468 M345.04,471.83
		c-9.649-0.33-19.3-0.659-28.91-1.479c4.33,3.16,8.841,6.07,13.181,9.22l0.189-0.06c12.46,8.64,24.82,17.489,37.55,25.7
		c6.12,0,12.171-1.521,17.91-3.561c1.45-3.05,1.09-6.5,1.48-9.76c0.939-7.061,0.51-14.18,0.59-21.271c0-0.43,0-1.3,0-1.729
		C373.13,470.961,359.06,471.29,345.04,471.83 M221.57,499.56c-7.33,9.91-11.03,22.21-11.6,34.439
		c0.06,9.171,2.529,19.04,8.909,25.851c4.511,6.83,11.7,11.43,18.511,15.729c12.85,6.15,27.46,8.04,41.59,7.5
		c7.43-0.569,15.359-1.96,21.22-6.93c7.53-7.45,8.66-21.189,0.44-28.61c-0.4-0.359-1.19-1.1-1.591-1.47
		c1.23-1.78,2.82-3.899,1.78-6.18c-2.24-3.2-6.16-4.55-9.78-5.45c-7.029-1.52-14.539-0.77-21.069,2.29
		c-11.79-6.07-25.32-7.35-38.37-7.75c2.18-15.58,5.18-31.02,7.86-46.51C232.57,487.07,226.47,492.87,221.57,499.56 M396.51,503.551
		c-3.12,1.02-6.45,3.12-7.12,6.569c-0.21,2.99-0.761,6.57,1.569,8.94c2.641,3.39,7.811,4.83,11.61,2.55
		c3.62-1.57,5.66-5.81,5.16-9.64C407.52,506.56,401.75,502.23,396.51,503.551 M343.27,506.131c-1.7,7.77-3.24,15.64-4.17,23.55
		c12.729-0.04,25.46,0.7,38.199,0.25C366.35,521.47,354.44,514.31,343.27,506.131 M415.75,530.051
		c-2.56,3.989-4.899,8.12-7.08,12.33c1.44-0.28,2.91-0.851,3.58-2.261c2.391-4.06,5.03-7.989,7.07-12.239
		C417.89,528.16,416.41,528.62,415.75,530.051 M421.19,529.83c-2.67,3.87-4.84,8.051-7.391,11.99c-0.81,1.4-2.25,2.42-3.859,2.641
		c-4.82,0.59-9.71,0.35-14.521,1.069c-2.399,0.47-3.79,3.44-2.27,5.5c2.77,4.33,6.93,7.601,9.7,11.931
		c1.819,6.659-4.011,13.159-2.53,19.739c5.38,0.221,10.09-5.149,15.74-4.56c5.04,2.01,9.01,6.01,14,8.14
		c2.16,0.84,4.689-1.03,4.76-3.3c-0.12-4.68-0.859-9.31-1.07-13.97c-0.149-1.67,0.57-3.351,1.811-4.44
		c3.46-3.2,7.39-5.859,10.8-9.109c1.99-1.82,0.87-5.301-1.57-6.04c-4.5-1.41-9.21-1.971-13.71-3.36c-1.5-0.37-2.72-1.5-3.34-2.89
		c-1.97-4.16-3.26-8.61-5.18-12.78C422.22,530.25,421.53,529.97,421.19,529.83 M338.17,531.921c-1.52,11.35-4.1,22.529-5.859,33.85
		c13.27,3.55,29.27,2.11,39.22-8.271c6.01-6.89,9.78-16.109,9.56-25.279C366.78,532.56,352.47,531.41,338.17,531.921 M380.98,545.97
		c-3.03,8.68-9.21,16.47-17.72,20.29c-9.79,4.239-21.021,4.54-31.271,1.81c-2.6,12.26-4.3,24.71-6.96,36.95
		c-0.38,2.89-3.24,4.479-5.89,4.81c-6.99,1.11-13.99,2.25-21.051,2.74c-4.829-0.359-8.819-3.54-13.449-4.67
		c1.72,3.88,4.52,7.11,6.76,10.69c1.02,1.25,1.84,3.08,3.63,3.35c15.69,1.75,32.13,0.771,46.73-5.72
		c0.63,3.63,0.189,7.33-1.69,10.54c10.7,0.46,21.41,1.42,32.13,0.71c4.58-0.36,9.19-0.33,13.79-0.41
		c8.47-0.04,16.85-1.74,24.92-4.25c6.64-9.41,10.07-20.64,12.431-31.8c0.439-1.86,0.52-3.78,0.55-5.681
		c-3.23-1.51-5.91-4.609-9.591-4.869c-4.989,1.25-9.38,4.18-14.329,5.539c-3.561,0.891-7.36-2.319-7.011-5.97
		c0.13-3.91,1.681-7.56,2.62-11.31c1.021-2.71,0.62-5.83-1.51-7.87c-3.05-4.271-8.771-7.64-8.65-13.42
		c0.86-4.69,5.95-4.61,9.53-5.84c-3.77-2.311-7.25-5.091-11.15-7.181C382.85,538.26,382.44,542.25,380.98,545.97 M441.07,546.381
		c2.18,0.54,4.69,0.55,6.43,2.18c2.261,1.89,2.711,5.56,0.87,7.91c-3.67,3.979-8.609,6.63-12.17,10.71
		c-1.069,5.77,1.521,11.8,0.44,17.63c-1.47,4.43-7.24,4.57-10.53,2.13c-1.07,8.32-3.55,16.37-6.39,24.24
		c7.04-2.49,13.79-6.16,19.359-11.141c5.07-2.04,10.23-4.31,15.83-4.069c6.57-0.471,12.09,3.569,18.08,5.529
		c6.96,2.53,14.62,2.471,21.84,1.131c6.301-1.23,12.65-3.95,16.75-9.07c4.49-5.74,5.53-13.54,4.15-20.55
		c-0.43-1.12-0.34-2.91-1.76-3.261c-1.91,1.271-3.54,3.141-5.891,3.591c-6.609,1.51-13.13-0.98-19.38-2.86
		c-6.859-2.03-14.22-0.61-20.5,2.56c2.98-5.68,1.96-13.06-3.08-17.22c-3.34-1.88-8.409-2.53-9.479-6.859
		c1.3-3.381,3.77-6.261,4.359-9.91c-0.409,0.08-1.22,0.25-1.619,0.34C452.02,538.87,445.301,541.72,441.07,546.381 M391.73,544.19
		c-1.54,0.95-3.7,1.64-3.98,3.73c0.07,1.35,0.521,2.729,1.4,3.779c2.99,3.82,6.82,7.021,9.21,11.29c0.59,5.44-2.26,10.54-3.12,15.84
		c-0.97,2.25,1.03,3.91,2.53,5.21c-0.83-6.6,2.83-12.609,3.229-19.05c-2.33-4.649-6.52-8.08-9.77-12.069
		C389.31,550.171,390.62,546.94,391.73,544.19 M146.31,558.24c-2,3.59,0.63,7.71,3.02,10.41c4.04,3.46,9.57,4.2,14.601,5.26
		c5.369,1.09,11.659,1.09,15.619,5.45c1.721,1.64,0.25,4.14-1.63,4.83c-3.58,1.63-7.63,2.42-10.71,5c-4.33,3.13,0.83,8.44,4.87,7.46
		c6.58-0.65,12.4-4.37,18.98-5.04c3.72-0.17,7.92,0.76,10.42,3.72c1.16,1.28,0.45,3.271-0.87,4.12c-3.3,2.38-7.64,3.82-9.64,7.63
		c-1.16,1.891,0.079,4.351,2,5.131c3.909,2.109,8.149-0.851,11.079-3.351c2.881-2.3,4.41-6.52,8.4-7.16c5.7-1.13,12.12-0.39,17,2.95
		c3.19,1.95,3.67,7.24,0.56,9.47c-2.359,1.44-5.319,1.63-7.56,3.301c-1.08,1.399-2.45,4.29-0.17,5.29
		c3.69,1.489,7.8,1.42,11.71,1.149c12.94-1.09,25.75-4.149,37.68-9.3c1.271-0.49,2.36-1.3,3.37-2.21
		c-7.189-3.851-14.68-7.09-22-10.66l-0.27,0.15c-3.561-2.36-7.601-3.82-11.37-5.811c-3.311-1.55-6.57-3.2-9.891-4.729
		c-5.17-2.83-11.39-4.46-14.81-9.65l-0.29-0.07c-1.29-2.63-2.31-5.38-2.71-8.29c-13.96-2.39-27.91-5.14-41.31-9.81
		c-6.101-1.94-11.881-4.91-18.19-6.17C151.59,556.87,148.55,556.48,146.31,558.24 M330.35,622.5c-10.99,2.79-22.41,2.4-33.65,2.351
		c0.61,1.479,1.41,3.3,3.33,3.33c12.04,2,24.75,1.319,36.27-2.88c2.5-0.69,3.811-3.03,3.82-5.521
		C336.8,620.45,333.63,621.671,330.35,622.5 M396.27,628.461c-6.37,0.909-12.8,0.8-19.2,1.109c-12.37,0.28-24.76,0.4-37.1-0.63
		c-0.03,1.32-0.07,2.66-0.091,4c21.21,3.41,43.181,3.4,64.131-1.72c2.72-0.4,4.43-2.76,5.189-5.221
		C404.86,626.68,400.64,628,396.27,628.461 M302.82,631.12c9.229,8.271,22.34,10.44,34.28,8.591c0.83-4.021,0.08-8.53,1.02-12.69
		C326.98,631.631,314.65,631.78,302.82,631.12 M339.76,635.32c0.1,5.17-0.141,10.51,1.51,15.49c1.8,1.75,4.52,1.97,6.819,2.68
		c9.7,2.16,19.82,3.391,29.721,1.771c5.75-0.92,11.939-2.99,15.5-7.9c3.39-4.41,6.81-8.81,9.87-13.46
		C382.35,638.4,360.78,638.44,339.76,635.32z"/>
	<path fill="#DBECF6" d="M286.401,343.372c0.472-1.367,1.971-2.271,3.397-2.148c0.975,0.074,1.82,0.785,2.171,1.681
		c0.403,1.01,0.232,2.146-0.125,3.143c-0.442,1.164-1.052,2.282-1.864,3.231c-0.141-0.627-0.278-1.273-0.626-1.823
		c-0.248-0.389-0.723-0.5-1.123-0.66C286.898,346.329,285.952,344.76,286.401,343.372L286.401,343.372z M288.865,341.83
		c-0.349,0.109-0.646,0.404-0.701,0.772c0.02,0.334,0.343,0.521,0.651,0.507c0.559,0.05,1.245-0.324,1.25-0.943
		C289.908,341.675,289.267,341.672,288.865,341.83z"/>
	<path fill="#D1E3EE" d="M273.647,341.695c0.328-0.163,1.047-0.325,1.058,0.059c0.01,0.383-2.559,1.558-3.878,2.253
		c-2.704,1.271-5.344,2.687-8.13,3.776c-0.155,0.06-0.32-0.03-0.475-0.039c0.048-0.131,0.097-0.262,0.146-0.393
		c0.684-0.255,1.313-0.629,1.952-0.977C267.46,344.876,270.532,343.242,273.647,341.695z"/>
	<path fill="#90D2DF" d="M288.865,341.83c0.401-0.158,1.042-0.155,1.2,0.336c-0.005,0.619-0.691,0.993-1.25,0.943
		c-0.308,0.014-0.631-0.173-0.651-0.507C288.219,342.234,288.516,341.939,288.865,341.83z"/>
	<path fill="#DBECF6" d="M292.687,347.16c0.788-0.915,1.809-1.781,3.068-1.866c1.031-0.108,2.117,0.424,2.578,1.371
		c0.638,1.265,0.451,3.007-0.655,3.956c-0.885,0.741-2.198,0.678-3.177,0.168c-0.537-0.284-0.874-0.854-1.448-1.07
		c-0.703-0.136-1.408,0.079-2.09,0.227C291.383,348.935,291.99,348.005,292.687,347.16L292.687,347.16z M295.375,345.853
		c-0.375,0.03-0.853,0.321-0.75,0.757c0.3,0.845,2.099,0.652,1.897-0.374C296.256,345.904,295.783,345.79,295.375,345.853z"/>
	<path fill="#90D2DF" d="M295.375,345.853c0.408-0.063,0.88,0.051,1.146,0.383c0.202,1.026-1.597,1.219-1.897,0.374
		C294.522,346.175,295,345.884,295.375,345.853z"/>
	<path fill="#A8C5E2" d="M260.165,346.513c0.262-0.156,0.553-0.242,0.86-0.234c-0.103,0.217-0.206,0.433-0.313,0.646
		c0.084,0.262,0.127,0.555,0.308,0.773c0.161,0.186,0.431,0.094,0.645,0.119c0.123,0.322,0.25,0.642,0.403,0.95l0.018,0.038
		c-0.253,0.094-0.507,0.19-0.759,0.29c-0.198-0.667-0.516-1.29-0.732-1.949C260.501,346.905,260.453,346.596,260.165,346.513z"/>
	<path fill="#BFD8F1" d="M261.025,346.279c0.533,0.191,0.989,0.708,0.947,1.298c-0.151,0.461,0.645,0.624,0.371,1.092
		c-0.069,0.025-0.206,0.075-0.275,0.1c-0.152-0.309-0.28-0.628-0.403-0.95c-0.214-0.025-0.484,0.066-0.645-0.119
		c-0.18-0.219-0.223-0.512-0.308-0.773C260.819,346.712,260.922,346.496,261.025,346.279z"/>
	<path fill="#D2E3EF" d="M260.165,346.513c0.288,0.083,0.336,0.392,0.429,0.634c0.216,0.659,0.535,1.282,0.732,1.949
		c-0.17,0.064-0.339,0.128-0.509,0.191c-0.014-0.084-0.043-0.255-0.058-0.339C260.079,348.386,259.579,347.313,260.165,346.513z"/>
	<path fill="#A8C5E2" d="M262.784,350.516c3.825-1.706,7.998-2.646,12.192-2.661c0.895,0,1.797-0.017,2.683,0.136
		c-2.139,0.416-4.278,0.847-6.373,1.449c-4.481,1.451-8.765,3.768-12.071,7.166c-0.68,0.687-1.362,1.388-1.89,2.203l0.195-0.02
		c-0.056,0.07-0.109,0.143-0.162,0.216c-0.222-0.067-0.335,0.132-0.447,0.278c-0.413,0.581-0.837,1.156-1.184,1.78
		c-3.209,1.063-5.959,3.447-7.424,6.497c-0.338,0.622-0.526,1.306-0.806,1.952c-0.026-0.399,0.101-0.783,0.186-1.168
		c1.048-4.418,3.345-8.516,6.508-11.766c2.124-2.201,4.615-4.057,7.348-5.433c0.094,0.239,0.186,0.479,0.274,0.722
		c-0.032,0.214-0.202,0.497,0.038,0.653c0.55,0.202,1.275-0.047,1.585-0.546c0.126-0.272-0.112-0.434-0.322-0.54
		C262.988,351.135,262.883,350.826,262.784,350.516z"/>
	<path fill="#D2E3EF" d="M258.196,348.625c0.5-0.226,1.011-0.424,1.521-0.626c0.221,0.444,0.475,0.878,0.821,1.238
		c-0.206,0.247-0.465,0.444-0.684,0.678c-0.313,0.428-0.433,1.02-0.926,1.298c-0.545,0.309-1.147,0.5-1.725,0.74
		c-3.069,1.231-6.227,2.213-9.366,3.245c-0.269,0.108-0.661,0.093-0.825,0.007c-0.164-0.086-0.254-0.468-0.286-0.594
		c0.086-0.04,6.192-2.966,9.278-4.396c0.818-0.365,1.54-0.932,2.168-1.559L258.196,348.625z"/>
	<path fill="#D2E3EF" d="M277.659,347.991c0.054-0.005,0.163-0.013,0.219-0.017c7.648,0.606,15.074,4.313,19.921,10.302
		c2.182,2.673,3.827,5.791,4.754,9.117c0.152,0.707,0.433,1.404,0.435,2.135c-0.572-1.649-1.354-3.24-2.502-4.567
		c-1.818-2.174-4.384-3.714-7.163-4.277c-3.124-0.641-6.489-0.097-9.209,1.581c-2.347,1.407-4.176,3.605-5.229,6.121
		c-1.205-0.85-2.743-0.992-4.171-0.895c-1.091,0.069-2.178,0.372-3.087,0.991c-1.217-3.043-3.618-5.596-6.615-6.937
		c-2.889-1.314-6.27-1.472-9.283-0.481c0.346-0.624,0.771-1.199,1.184-1.78c0.112-0.146,0.226-0.346,0.447-0.278
		c-0.061,0.09-0.183,0.27-0.244,0.36c1.376-0.507,2.823-1.043,4.315-0.831c1.551,0.175,2.92,0.968,4.292,1.648
		c-0.731-1.572-2.33-2.709-4.047-2.922c-1.528-0.211-3.127,0.378-4.155,1.528l-0.195,0.02c0.527-0.815,1.21-1.517,1.89-2.203
		c3.306-3.398,7.59-5.715,12.071-7.166C273.381,348.838,275.52,348.407,277.659,347.991L277.659,347.991z M287.42,357.432
		c-1.362,0.439-2.614,1.415-3.2,2.74c1.34-0.65,2.664-1.437,4.171-1.621c1.53-0.256,3.016,0.309,4.432,0.806
		C291.73,357.584,289.385,356.804,287.42,357.432z"/>
	<path fill="#A8C5E2" d="M257.175,349.042c0.324-0.148,0.653-0.285,0.997-0.385c-0.628,0.627-1.35,1.193-2.168,1.559
		c-3.086,1.43-6.142,2.926-9.222,4.368l-0.066,0.031c0.072-0.387,0.37-0.656,0.712-0.819c1.642-0.849,3.278-1.713,4.927-2.547
		C253.95,350.488,255.564,349.769,257.175,349.042z"/>
	<path fill="#A9C5E2" d="M261.51,349.351c0.148-0.038,0.297-0.08,0.445-0.126c0.298,0.815,0.63,1.617,0.911,2.438
		c0.076,0.051,0.229,0.153,0.303,0.205c-0.12,0.106-0.241,0.214-0.361,0.322c-0.183-0.166-0.378-0.334-0.45-0.58
		C262.069,350.861,261.76,350.117,261.51,349.351z"/>
	<path fill="#D2E3EF" d="M261.306,349.641c-0.046-0.165,0.022-0.261,0.204-0.29c0.25,0.766,0.559,1.51,0.849,2.26
		c0.072,0.246,0.267,0.414,0.45,0.58c-0.244,0.053-0.489,0.097-0.734,0.136c0.182-0.374-0.055-0.74-0.174-1.091
		C261.706,350.703,261.485,350.179,261.306,349.641z"/>
	<path fill="#294175" d="M257.521,358.79c1.027-1.15,2.626-1.739,4.155-1.528c1.717,0.213,3.316,1.35,4.047,2.922
		c-1.372-0.681-2.741-1.474-4.292-1.648c-1.493-0.212-2.939,0.324-4.315,0.831c0.061-0.091,0.183-0.271,0.244-0.36
		C257.411,358.932,257.465,358.86,257.521,358.79z"/>
	<path fill="#2A4175" d="M287.42,357.432c1.964-0.628,4.31,0.151,5.403,1.925c-1.416-0.497-2.902-1.062-4.432-0.806
		c-1.508,0.185-2.832,0.971-4.171,1.621C284.806,358.847,286.058,357.872,287.42,357.432z"/>
	<path fill="#19263F" d="M255.728,361.064c3.013-0.99,6.394-0.833,9.283,0.481c2.998,1.341,5.398,3.894,6.615,6.937
		c0.91-0.619,1.997-0.922,3.087-0.991c1.429-0.098,2.967,0.045,4.171,0.895c1.054-2.516,2.883-4.714,5.229-6.121
		c2.72-1.678,6.086-2.222,9.209-1.581c2.779,0.563,5.345,2.104,7.163,4.277c1.148,1.327,1.93,2.918,2.502,4.567
		c0.486,0.297,0.978,0.591,1.43,0.937c0.008,0.107,0.025,0.319,0.033,0.424c-0.613-0.358-1.246-0.7-1.792-1.157
		c-0.308-0.626-0.449-1.329-0.802-1.938c-1.807-3.856-5.755-6.609-10.004-6.938c-1.152,0.02-2.319-0.104-3.453,0.154
		c-4.224,0.785-7.932,3.938-9.323,8.013c-1.092-0.838-2.492-1.09-3.833-1.117c-1.331,0.14-2.744,0.34-3.808,1.227
		c-1.603-4.909-6.644-8.548-11.837-8.281c-3.146-0.114-6.21,1.305-8.479,3.431c-1.279,1.334-2.386,2.879-2.987,4.642
		c-0.115,0.285-0.167,0.608-0.358,0.856c-0.516,0.441-1.146,0.723-1.697,1.116c-0.005-0.11-0.015-0.332-0.021-0.443
		c0.477-0.319,0.974-0.607,1.441-0.938c0.28-0.646,0.468-1.33,0.806-1.952C249.769,364.511,252.518,362.128,255.728,361.064z"/>
	<path fill="#22365A" d="M251.12,364.28c2.269-2.126,5.333-3.545,8.479-3.431c5.193-0.267,10.234,3.372,11.837,8.281
		c1.063-0.887,2.477-1.087,3.808-1.227c1.341,0.027,2.741,0.279,3.833,1.117c1.392-4.075,5.099-7.228,9.323-8.013
		c1.134-0.259,2.301-0.135,3.453-0.154c4.249,0.329,8.197,3.082,10.004,6.938c0.353,0.609,0.494,1.313,0.802,1.938
		c0.545,0.457,1.178,0.799,1.792,1.157c0.004,1.45,0.048,2.907-0.028,4.353c-0.331,0.262-0.698,0.482-1.062,0.695
		c-0.264,0.156-0.692,0.183-0.733,0.559c-0.608,2.259-1.915,4.299-3.644,5.867c-1.743,1.582-3.957,2.64-6.283,3.003
		c-2.955,0.484-6.063-0.154-8.595-1.746c-1.482-0.992-2.809-2.234-3.766-3.748c-0.799-1.207-1.319-2.57-1.69-3.964
		c-0.169-0.935-0.274-1.88-0.287-2.831c-0.022-0.502,0.141-1.019,0.044-1.512c-0.396-0.616-1.072-1.007-1.763-1.204
		c-1.541-0.427-3.343-0.029-4.44,1.167c-0.241,0.215-0.141,0.557-0.137,0.836c0.313,3.88-1.402,7.835-4.41,10.298
		c-0.09,0.079-0.18,0.159-0.271,0.238c-1.569,1.218-3.424,2.058-5.377,2.426c-2.726,0.481-5.614,0.076-8.058-1.24
		c-3.025-1.606-5.343-4.512-6.165-7.844c-0.215-0.1-0.429-0.198-0.644-0.296c-0.373-0.166-0.729-0.364-1.074-0.58
		c-0.046-1.487-0.06-2.985,0.008-4.471c0.551-0.394,1.181-0.675,1.697-1.116c0.191-0.248,0.244-0.571,0.358-0.856
		C248.735,367.159,249.841,365.614,251.12,364.28L251.12,364.28z M254.124,363.729c-2.215,1.319-3.941,3.438-4.772,5.879
		c-0.85,2.449-0.782,5.197,0.18,7.604c0.889,2.204,2.48,4.153,4.548,5.347l-0.017,0.032c2.869,1.711,6.511,2.071,9.63,0.84
		c0.441-0.164,0.868-0.368,1.283-0.594c3.715-1.969,6.131-6.234,5.711-10.441c-0.105-2.79-1.492-5.442-3.502-7.347
		c-0.129-0.114-0.256-0.239-0.422-0.296c-1.258-1.159-2.881-1.892-4.534-2.294C259.498,361.817,256.528,362.28,254.124,363.729
		L254.124,363.729z M288.677,362.37c-2.439,0.46-4.71,1.772-6.306,3.675h-0.032c-1.92,2.308-2.941,5.417-2.506,8.409
		c0.218,2.316,1.292,4.525,2.87,6.223c1.65,1.762,3.888,2.968,6.273,3.344c2.241,0.368,4.595,0.014,6.626-1.005
		c2.64-1.293,4.713-3.698,5.596-6.504c0.44-1.444,0.684-3.008,0.417-4.503c0.029-0.54-0.118-1.066-0.241-1.585
		c-0.603-2.38-2.055-4.517-3.989-6.02l-0.043,0.004C294.927,362.522,291.678,361.793,288.677,362.37z"/>
	<path fill="#D2E3EF" d="M254.124,363.729c2.404-1.449,5.374-1.912,8.105-1.271c1.653,0.402,3.276,1.135,4.534,2.294
		c-0.597-0.17-1.095-0.553-1.657-0.802c-2.29-1.067-4.917-1.433-7.403-0.948c-2.336,0.462-2.995,1.027-3.633,1.217
		C254.089,364.056,254.107,363.893,254.124,363.729z"/>
	<path fill="#D2E3EF" d="M288.677,362.37c3.001-0.577,6.25,0.152,8.666,2.038c-0.314,0.07-0.598-0.115-0.876-0.229
		c-0.03,0.061-0.094,0.18-0.126,0.241c-0.48-0.46-1.149-0.622-1.699-0.977c-0.482-0.266-1.031-0.346-1.563-0.444
		c-3.732-0.732-7.739,0.48-10.529,3.045c-0.044,0-0.134,0-0.178,0C283.967,364.142,286.238,362.83,288.677,362.37z"/>
	<path fill="#A8C5E2" d="M257.703,363.003c2.485-0.484,5.113-0.119,7.403,0.948c0.562,0.249,1.061,0.632,1.657,0.802
		c0.166,0.057,0.293,0.182,0.422,0.296c2.01,1.904,3.397,4.557,3.502,7.347c-0.534-1.594-1.214-3.188-2.359-4.447
		c-2.495-3.02-6.691-4.485-10.525-3.691c-0.566-0.26-1.119-0.544-1.684-0.804C256.606,363.178,257.165,363.105,257.703,363.003z"/>
	<path fill="#FFFFFF" d="M288.987,368.936c0.789-0.35,1.725,0.544,1.404,1.345c-0.201,0.788-1.321,1.004-1.835,0.397
		C288.034,370.145,288.292,369.177,288.987,368.936z"/>
	<path fill="#A8C5E2" d="M272.206,371.527c1.097-1.196,2.899-1.594,4.44-1.167c0.691,0.197,1.367,0.588,1.763,1.204
		c0.097,0.493-0.066,1.01-0.044,1.512c-1.735-1.396-4.5-1.263-6.02,0.387c-0.23,0.224-0.17,0.554-0.151,0.84
		c0.32,3.193-0.872,6.407-2.889,8.859l-0.088-0.005c-0.513-0.031-1.025-0.043-1.537-0.053c-0.007-0.148-0.012-0.297-0.02-0.443
		c3.007-2.463,4.723-6.418,4.41-10.298C272.065,372.084,271.965,371.742,272.206,371.527z"/>
	<path fill="#D2E3EF" d="M272.344,373.463c1.52-1.649,4.285-1.783,6.02-0.387c0.013,0.951,0.118,1.896,0.287,2.831
		c-0.108,1.199,0.239,2.382,0.636,3.5c0.364,1.037,0.907,2,1.532,2.899c-0.966,0.251-1.959,0.37-2.952,0.457
		c-1.412,0.246-2.844,0.402-4.278,0.382c-1.423,0.166-2.862,0.159-4.285,0.017c2.017-2.452,3.209-5.666,2.889-8.859
		C272.174,374.016,272.115,373.686,272.344,373.463z"/>
	<path opacity="0.6" fill="#5A6A7E" enable-background="new    " d="M254.505,374.564c0.026,0.08,0.079,0.241,0.105,0.321
		C254.584,374.805,254.531,374.644,254.505,374.564z"/>
	<path fill="#A8C5E2" d="M247.144,375.945c0.215,0.098,0.429,0.196,0.644,0.296c0.822,3.332,3.14,6.237,6.165,7.844l-0.223,0.052
		c0.654,0.582,1.479,0.911,2.278,1.242c1.279,0.472,2.646,0.767,4.016,0.709c0.333-0.013,0.669-0.001,1.002,0.026
		c-1.207,0.753-2.664,0.988-4.068,0.955c-0.331-0.08-0.664-0.14-0.998-0.206c-0.62-0.394-1.298-0.682-1.998-0.902
		c-0.269-0.19-0.537-0.38-0.817-0.552c-0.071,0.138-0.14,0.275-0.21,0.414c-0.8-0.091-1.645-0.034-2.379,0.322
		c-0.497,0.25-0.963,0.716-0.959,1.309c-0.049,0.667,0.408,1.206,0.858,1.638c-0.521,1.119-0.82,2.38-0.587,3.611
		c0.237,2.019,1.534,3.68,2.794,5.188c-0.521-0.309-0.904-0.788-1.34-1.199c-2.064-2.085-3.575-4.865-3.651-7.846
		c-0.075-1.883,0.482-3.732,1.346-5.389C247.984,381.08,247.334,378.53,247.144,375.945z"/>
	<path fill="#A8C5E2" d="M278.651,375.907c0.371,1.394,0.892,2.757,1.69,3.964c0.957,1.514,2.283,2.756,3.766,3.748
		c0.069,0.142,0.155,0.271,0.259,0.389c1.469,1.069,3.197,1.812,5.01,2.012c0.426,0.036,0.853,0.078,1.275,0.158
		c-1.583,0.153-3.183,0.444-4.771,0.169c-0.36-0.165-0.715-0.342-1.06-0.537c-0.677-0.574-1.347-1.17-1.852-1.908
		c-0.424-0.535-0.673-1.175-1.029-1.752c-0.363-0.092-0.727,0.137-1.076,0.219l-0.046-0.062c-0.625-0.899-1.168-1.862-1.532-2.899
		C278.89,378.289,278.543,377.106,278.651,375.907z"/>
	<path fill="#A8C5E2" d="M302.629,376.495c0.042-0.376,0.469-0.402,0.733-0.559c-0.07,0.802-0.195,1.598-0.312,2.394l-0.036-0.031
		c-0.035-0.029-0.105-0.09-0.14-0.119c-0.338,1.422-1.008,2.744-1.801,3.962c-1.091,1.537-2.558,2.766-4.148,3.759
		c-0.467,0.154-0.932,0.311-1.395,0.472c-1.355-0.295-2.738-0.158-4.11-0.2c1.364-0.187,2.745-0.396,4.001-0.992
		c1.206-0.561,2.344-1.299,3.265-2.265c0.137-0.158,0.327-0.319,0.298-0.553C300.714,380.794,302.021,378.754,302.629,376.495z"/>
	<path fill="#D2E3EF" d="M302.875,378.179c0.035,0.029,0.105,0.09,0.14,0.119c-0.276,1.776-0.84,3.507-1.544,5.158
		c0.903,1.733,1.463,3.683,1.335,5.65c-0.172,2.774-1.512,5.412-3.465,7.357c0.887-1.805,1.505-3.807,1.356-5.836
		c-0.03-0.553-0.167-1.101-0.453-1.577c0.44-0.417,0.833-0.961,0.812-1.595c-0.004-0.594-0.457-1.071-0.968-1.309
		c-0.983-0.481-2.111-0.386-3.162-0.248c1.59-0.993,3.057-2.222,4.148-3.759C301.867,380.924,302.537,379.601,302.875,378.179z"/>
	<path fill="#DDEAEE" d="M280.865,382.368c0.349-0.082,0.713-0.311,1.076-0.219c0.356,0.577,0.605,1.217,1.029,1.752
		c0.505,0.738,1.175,1.334,1.852,1.908c-0.453-0.168-0.867-0.42-1.24-0.722C282.538,384.334,281.622,383.409,280.865,382.368z"/>
	<path fill="#FFFFFF" d="M277.867,382.763c0.993-0.087,1.985-0.206,2.952-0.457l0.046,0.062c0.757,1.041,1.674,1.966,2.716,2.72
		c0.374,0.302,0.788,0.554,1.24,0.722c0.345,0.195,0.699,0.372,1.06,0.537c1.225,0.716,2.654,0.938,4.04,1.12
		c1.063,0.023,2.137,0.056,3.182-0.182c0.442-0.079,0.874-0.262,1.331-0.193c-0.474,0.412-0.921,0.951-0.944,1.61
		c-0.037,0.588,0.375,1.102,0.873,1.367c0.849,0.463,1.856,0.439,2.791,0.348c1.12-0.179,2.232-0.612,3.093-1.365
		c0.285,0.477,0.422,1.024,0.453,1.577c0.148,2.029-0.469,4.031-1.356,5.836c-1.572,1.787-3.59,3.153-5.681,4.269
		c-0.395-0.129-0.691-0.493-1.116-0.571c-0.552-0.174-1.139,0.228-1.338,0.735c-0.049,0.351-0.033,0.703-0.05,1.057
		c-5.155,2.112-10.753,3.025-16.309,3c-5.522-0.079-11.091-1.04-16.155-3.298c-0.198-0.094-0.409-0.17-0.578-0.312
		c-1.001-0.868-2.155-1.592-2.917-2.705c-1.567-1.752-2.431-4.033-2.743-6.34c-0.068-0.716-0.198-1.436-0.09-2.152
		c0.994,0.328,2.074,0.418,3.104,0.227c0.759-0.172,1.676-0.65,1.689-1.541c0.055-0.839-0.606-1.473-1.196-1.97
		c0.334,0.066,0.667,0.126,0.998,0.206c4.255,1.264,9.008-0.394,12.019-3.543c0.084-0.119,0.163-0.242,0.238-0.369l0.088,0.005
		c1.423,0.143,2.862,0.149,4.285-0.017C275.023,383.166,276.455,383.01,277.867,382.763L277.867,382.763z M269.754,387.056
		c-0.105,1.306,0.117,2.611,0.497,3.858c0.508,1.487,1.475,2.909,2.926,3.604c1.42,0.651,3.116,0.771,4.564,0.14
		c1.503-0.593,2.583-2.018,2.948-3.568c0.111-0.481,0.263-0.975,0.163-1.473c0.172-0.748,0.233-1.516,0.213-2.281
		c-2.292-0.029-4.583,0-6.874-0.035c-0.187-0.103-0.401-0.093-0.606-0.088c-0.861,0.019-1.722-0.006-2.581-0.076
		C270.586,387.132,270.164,387.163,269.754,387.056z"/>
	<path fill="#D2E3EF" d="M292.702,385.365c2.326-0.363,4.54-1.421,6.283-3.003c0.029,0.233-0.161,0.395-0.298,0.553
		c-0.92,0.966-2.059,1.704-3.265,2.265c-1.256,0.597-2.637,0.806-4.001,0.992c-0.256,0.036-0.515,0.04-0.77,0.006
		c-0.422-0.08-0.849-0.122-1.275-0.158c-1.813-0.2-3.542-0.942-5.01-2.012c-0.104-0.117-0.19-0.247-0.259-0.389
		C286.639,385.211,289.747,385.849,292.702,385.365z"/>
	<path fill="#DDEAEE" d="M267.388,382.899c0.091-0.079,0.181-0.159,0.271-0.238c0.007,0.146,0.013,0.295,0.02,0.443
		c0.512,0.01,1.024,0.021,1.537,0.053c-0.075,0.127-0.154,0.25-0.238,0.369c-3.011,3.149-7.764,4.807-12.019,3.543
		c1.404,0.033,2.861-0.202,4.068-0.955c0.114-0.08,0.224-0.162,0.333-0.245c0.579,0.116,1.149-0.07,1.699-0.231
		c1.446-0.434,2.796-1.171,3.957-2.136C267.19,383.337,267.51,383.197,267.388,382.899z"/>
	<path fill="#FFFFFF" d="M262.01,385.325c1.954-0.368,3.809-1.208,5.377-2.426c0.122,0.298-0.198,0.438-0.373,0.603
		c-1.16,0.965-2.51,1.702-3.957,2.136c-0.55,0.161-1.121,0.348-1.699,0.231C261.58,385.691,261.797,385.51,262.01,385.325z"/>
	<path fill="#D2E3EF" d="M253.73,384.136l0.223-0.052c2.443,1.316,5.332,1.722,8.058,1.24c-0.213,0.186-0.431,0.366-0.651,0.544
		c-0.109,0.083-0.22,0.165-0.333,0.245c-0.333-0.027-0.669-0.039-1.002-0.026c-1.371,0.058-2.737-0.237-4.016-0.709
		C255.209,385.048,254.384,384.719,253.73,384.136z"/>
	<path fill="#CBD0DC" d="M253.146,385.409c0.28,0.172,0.548,0.361,0.817,0.552c-0.342-0.051-0.684-0.095-1.027-0.138
		C253.006,385.684,253.075,385.547,253.146,385.409z"/>
	<path fill="#E69193" d="M250.556,386.145c0.734-0.356,1.579-0.413,2.379-0.322c0.343,0.043,0.685,0.087,1.027,0.138
		c0.699,0.221,1.377,0.509,1.998,0.902c0.59,0.497,1.251,1.131,1.196,1.97c-0.013,0.891-0.93,1.369-1.689,1.541
		c-1.03,0.191-2.11,0.102-3.104-0.227c-0.689-0.24-1.353-0.576-1.908-1.056c-0.45-0.432-0.907-0.971-0.858-1.638
		C249.593,386.861,250.06,386.395,250.556,386.145z"/>
	<path fill="#E69193" d="M296.926,385.9c1.051-0.138,2.179-0.233,3.162,0.248c0.511,0.237,0.963,0.715,0.968,1.309
		c0.022,0.634-0.371,1.178-0.812,1.595c-0.861,0.753-1.973,1.187-3.093,1.365c-0.935,0.092-1.942,0.115-2.791-0.348
		c-0.497-0.266-0.91-0.779-0.873-1.367c0.023-0.659,0.471-1.198,0.944-1.61c0.354-0.258,0.717-0.504,1.099-0.72
		C295.994,386.211,296.459,386.054,296.926,385.9z"/>
	<path fill="#DDEAEE" d="M285.881,386.346c1.588,0.275,3.187-0.016,4.771-0.169c0.255,0.034,0.514,0.03,0.77-0.006
		c1.372,0.042,2.755-0.095,4.11,0.2c-0.382,0.216-0.745,0.462-1.099,0.72c-0.457-0.068-0.889,0.114-1.331,0.193
		c-1.045,0.237-2.118,0.205-3.182,0.182C288.534,387.284,287.106,387.062,285.881,386.346z"/>
	<path fill="#DDEAEE" d="M269.754,387.056c0.41,0.106,0.832,0.075,1.25,0.081c0.858,0.07,1.719,0.095,2.581,0.076
		c0.205-0.005,0.419-0.015,0.606,0.088c-1.427,0.007-2.854,0.014-4.282,0.055c0.123,1.605,0.371,3.252,1.198,4.664
		c0.72,1.446,2.23,2.433,3.838,2.547c0.387,0.068,0.783,0.069,1.172,0.002c1.199-0.118,2.366-0.653,3.158-1.573
		c0.81-0.965,1.283-2.164,1.577-3.378c0.1,0.498-0.052,0.991-0.163,1.473c-0.364,1.551-1.444,2.976-2.948,3.568
		c-1.448,0.631-3.144,0.512-4.564-0.14c-1.451-0.695-2.417-2.117-2.926-3.604C269.87,389.668,269.649,388.362,269.754,387.056z"/>
	<path fill="#2A4176" d="M269.909,387.356c1.428-0.041,2.855-0.048,4.282-0.055c2.292,0.035,4.583,0.006,6.874,0.035
		c0.02,0.766-0.042,1.533-0.213,2.281c-0.293,1.214-0.767,2.413-1.577,3.378c-0.792,0.92-1.959,1.455-3.158,1.573
		c-0.392,0.001-0.782,0.001-1.172-0.002c-1.608-0.114-3.118-1.101-3.838-2.547C270.28,390.608,270.032,388.962,269.909,387.356
		L269.909,387.356z M270.274,387.62c0.01,1.584,0.427,3.191,1.264,4.544c1.531-1.332,3.725-1.636,5.649-1.144
		c0.865,0.185,1.614,0.658,2.322,1.167c0.832-1.37,1.231-2.968,1.283-4.562c-0.309,0-0.616,0.003-0.923,0.007
		c-0.134,0.54-0.465,1.103-1.013,1.286c-2.169,0.029-4.343,0.02-6.513,0.004c-0.665-0.06-0.923-0.756-1.1-1.297
		C270.92,387.625,270.597,387.623,270.274,387.62L270.274,387.62z M271.497,387.801l0.103-0.021
		c0.165,0.387,0.386,0.895,0.893,0.863c2.025,0.008,4.051,0.002,6.075,0.002c0.534-0.001,0.815-0.545,1.026-0.959
		c-0.154-0.04-0.31-0.06-0.468-0.06c-2.449,0.006-4.9,0.001-7.348,0.001C271.634,387.605,271.541,387.662,271.497,387.801
		L271.497,387.801z M274.493,391.145c-0.969,0.146-1.942,0.5-2.655,1.193c-0.143,0.2,0.144,0.361,0.245,0.508
		c1.83,2.035,5.521,1.896,7.152-0.319c0.048-0.175-0.154-0.255-0.253-0.352C277.711,391.228,276.042,390.943,274.493,391.145z"/>
	<path fill="#8D2C37" d="M270.274,387.62c0.323,0.003,0.646,0.005,0.969,0.006c0.176,0.541,0.435,1.237,1.1,1.297
		c2.169,0.016,4.343,0.025,6.513-0.004c0.548-0.184,0.879-0.746,1.013-1.286c0.308-0.004,0.615-0.007,0.923-0.007
		c-0.052,1.594-0.451,3.191-1.283,4.562c-0.708-0.509-1.457-0.982-2.322-1.167c-1.924-0.492-4.118-0.188-5.649,1.144
		C270.701,390.811,270.284,389.204,270.274,387.62z"/>
	<path opacity="0.85" fill="#83829A" enable-background="new    " d="M271.497,387.801c0.044-0.139,0.137-0.195,0.281-0.174
		c2.448,0,4.898,0.005,7.348-0.001c0.158,0,0.314,0.02,0.468,0.06c-1.997,0.051-3.996,0.008-5.994,0.022
		c-0.667,0.021-1.343-0.066-2,0.071L271.497,387.801z"/>
	<path fill="#FFFFFF" d="M271.599,387.779c0.658-0.138,1.333-0.051,2-0.071c1.998-0.015,3.997,0.028,5.994-0.022
		c-0.21,0.414-0.492,0.958-1.026,0.959c-2.024,0-4.05,0.006-6.075-0.002C271.986,388.674,271.764,388.166,271.599,387.779z"/>
	<path fill="#DDEAEE" d="M250.456,389.092c0.555,0.479,1.218,0.815,1.908,1.056c-0.108,0.717,0.022,1.437,0.09,2.152
		c0.312,2.307,1.175,4.588,2.743,6.34c0.762,1.113,1.916,1.837,2.917,2.705c-0.653-0.212-1.236-0.587-1.841-0.904
		c-1.272-0.74-2.543-1.528-3.609-2.55c-1.26-1.508-2.557-3.169-2.794-5.188C249.636,391.471,249.935,390.211,250.456,389.092z"/>
	<path fill="#E69193" d="M274.493,391.145c1.549-0.202,3.218,0.083,4.489,1.03c0.1,0.097,0.302,0.177,0.253,0.352
		c-1.631,2.216-5.322,2.354-7.152,0.319c-0.101-0.146-0.388-0.308-0.245-0.508C272.551,391.645,273.524,391.291,274.493,391.145z"/>
	<path opacity="0.88" fill="#79819C" enable-background="new    " d="M274.945,394.567c0.39,0.003,0.781,0.003,1.172,0.002
		C275.728,394.636,275.332,394.635,274.945,394.567z"/>
	<path fill="#D2E3EF" d="M291.86,400.614c0.475-0.377,1.055,0.067,1.448,0.361c0.799,0.564,1.154,1.538,1.25,2.479
		c0.938-0.309,2.093-0.383,2.9,0.283c0.778,0.718,1.135,1.778,1.292,2.801c0.145,0.949,0.042,1.942-0.327,2.832
		c-0.488,1.129-1.765,1.847-2.979,1.748c-0.875-0.235-1.66-0.901-1.898-1.794c-0.541-1.756-0.481-3.704,0.117-5.438
		c-0.359,0.28-0.482,0.741-0.619,1.153c-0.417,1.507-0.433,3.161,0.161,4.625c-0.123,0.063-0.248,0.118-0.376,0.168
		c-1.563,0.225-3.128-0.176-4.573-0.749c-1.023-0.34-1.945-0.913-2.942-1.314c-0.13-0.082-0.176-0.248-0.262-0.367
		c-0.542-0.974-1.165-1.91-1.919-2.734c0.284-0.206,0.645-0.195,0.978-0.242c1.203,0.911,2.599,1.722,4.148,1.758
		c1.037,0.009,2.154-0.435,2.729-1.329c0.365-0.951,0.39-1.993,0.468-2.997C291.493,401.431,291.429,400.866,291.86,400.614z"/>
	<path fill="#FFFFFF" d="M287.844,404.689c0.601-0.213,1.211-0.398,1.815-0.607c-0.021,0.053-0.061,0.157-0.082,0.21l-0.101-0.043
		c-0.015,0.006-0.045,0.017-0.061,0.022C289.109,404.782,288.365,404.722,287.844,404.689z"/>
	<path fill="#A8C5E2" d="M265.736,404.252c0.435,0.057,0.87,0.149,1.282,0.299c0.438,0.28,0.858,0.585,1.297,0.864
		C267.432,405.083,266.607,404.613,265.736,404.252z"/>
	<path fill="#BB667E" d="M264.301,404.595c0.476-0.06,0.991-0.317,1.442-0.039c2.567,1.223,5.145,2.423,7.716,3.638
		c0.446,0.27,1.097,0.332,1.339,0.843c-0.818,0.18-1.619,0.445-2.449,0.564c-0.549,0.108-1.045-0.206-1.519-0.433
		c-2.528-1.288-5.098-2.494-7.618-3.794c0.216,0.006,0.425-0.054,0.626-0.132C264.677,404.967,264.937,404.794,264.301,404.595
		L264.301,404.595z M273.599,408.677c-0.148,0.198,0.216,0.361,0.346,0.209C274.058,408.698,273.726,408.54,273.599,408.677z"/>
	<path fill="#FFFFFF" d="M264.13,404.76c0.043-0.042,0.127-0.124,0.17-0.165c0.324,0.006,0.658,0.036,0.951,0.189
		c2.284,1.097,4.574,2.185,6.858,3.28c0.468,0.213,0.94,0.425,1.367,0.714l-0.078,0.06c-2.586-1.192-5.174-2.38-7.756-3.576
		C265.157,405.047,264.682,404.748,264.13,404.76z"/>
	<path fill="#1F6897" d="M281.375,404.908c0.428-0.139,0.876-0.192,1.321-0.253c2.61,2.923,4.102,6.739,4.558,10.606
		c-0.104-0.099-0.244-0.172-0.303-0.306c-0.262-0.595-0.428-1.228-0.723-1.805c-0.192-0.396-0.728-0.412-1.096-0.313
		c-0.447,0.251-0.523,0.831-0.9,1.15c-0.684-0.371-1.309-0.85-1.933-1.312c0.497-0.018,1.033-0.052,1.418-0.412
		c0.893-0.656,0.744-2.227-0.244-2.719c-0.817-0.499-2.016-0.122-2.361,0.782c-0.266,0.509-0.1,1.078,0.064,1.589
		c-0.806-0.578-1.656-1.097-2.448-1.697c0.728-0.126,1.494-0.182,2.16-0.528c0.378-0.19,0.306-0.672,0.376-1.02
		C281.365,407.421,281.395,406.164,281.375,404.908z"/>
	<path fill="#8D2C37" d="M264.086,404.756l0.044,0.005c0.552-0.013,1.027,0.286,1.513,0.502c2.582,1.196,5.17,2.384,7.756,3.576
		c-0.179,0.196-0.625,0.01-0.625,0.01s-1.024-0.421-1.436-0.614c-2.143-0.987-4.289-1.967-6.425-2.966
		c-0.271-0.143-0.578-0.239-0.872-0.106C264.052,405.06,264.075,404.857,264.086,404.756z"/>
	<path fill="#9D274D" d="M264.086,404.756l0.044,0.005c0.552-0.013,1.027,0.286,1.513,0.502c2.582,1.196,5.17,2.384,7.756,3.576
		c-0.038,0.032-0.259,0.158-0.259,0.158s-1.39-0.569-1.801-0.763c-2.143-0.987-4.289-1.967-6.425-2.966
		c-0.271-0.143-0.578-0.239-0.872-0.106C264.052,405.06,264.075,404.857,264.086,404.756z"/>
	<path fill="#E9CE3E" d="M268.293,404.759c0.813,0.119,1.668,0.115,2.446,0.375c4.446,3.069,8.917,6.105,13.342,9.202
		c-0.123,0.333-0.453,0.839-0.865,0.595c-2.7-1.819-5.384-3.66-8.083-5.482c-0.012-0.315-0.056-0.632-0.216-0.909
		c-1.244-0.608-2.519-1.152-3.744-1.796C270.207,406.094,269.218,405.468,268.293,404.759z"/>
	<path fill="#A8C5E2" d="M275.257,405.289c1.941-0.074,3.889-0.12,5.813-0.407c0,0.06,0,0.181,0,0.24
		c-2.277,0.219-4.526,0.658-6.791,0.975c-0.399,0.048-0.792,0.133-1.174,0.256l-0.026,0.008c-0.601-0.436-1.225-0.839-1.825-1.276
		C272.585,405.198,273.921,405.243,275.257,405.289z"/>
	<path fill="#9D274D" d="M261.772,405.123c0.489-0.187,1.027-0.044,1.44,0.252c2.52,1.3,5.089,2.506,7.618,3.794
		c0.473,0.227,0.969,0.541,1.519,0.433c0.831-0.119,1.631-0.385,2.449-0.564c-0.011,0.07-0.035,0.213-0.046,0.285
		c-1.008,0.282-2.025,0.614-3.084,0.589c-0.436,2.282-0.875,4.565-1.332,6.845c-0.093,0.521-0.062,1.056-0.158,1.578
		c0.042-0.597,0.014-1.192-0.116-1.775c0.44-2.266,0.87-4.535,1.319-6.8c-2.434-1.232-4.904-2.392-7.338-3.625
		C263.298,405.772,262.567,405.369,261.772,405.123z"/>
	<path fill="#FFFFFF" d="M272.179,409.193c0,0-0.367-0.123-0.58-0.229c-2.002-0.956-4.014-1.894-6.016-2.849
		c-0.585-0.283-1.199-0.516-1.746-0.873l0.204-0.081c0.294-0.133,0.601-0.036,0.872,0.106c2.136,0.999,4.282,1.979,6.425,2.966
		c0.411,0.193,1.797,0.761,1.797,0.761s-0.176,0.062-0.397,0.121s-0.456,0.112-0.458,0.111"/>
	<path fill="#CD5073" d="M261.071,406.388c0.12-0.461,0.213-1.05,0.702-1.266c0.795,0.246,1.526,0.649,2.271,1.011
		c2.434,1.233,4.904,2.393,7.338,3.625c-0.45,2.265-0.879,4.534-1.319,6.8c-0.212-0.359-0.438-0.714-0.708-1.032
		c0.06-0.265,0.172-0.533,0.111-0.809c-0.056-0.274-0.298-0.446-0.487-0.626c0.18-0.958,0.401-1.911,0.522-2.879
		c0.065-0.521-0.306-0.973-0.755-1.184c-1.477-0.751-2.986-1.44-4.473-2.173c-0.478-0.211-0.997-0.566-1.538-0.381
		c-0.357,0.117-0.349,0.537-0.421,0.839c-0.155,0.991-0.39,1.972-0.519,2.967c-0.084,0.458,0.227,0.876,0.631,1.058
		c0.959,0.474,1.921,0.944,2.892,1.393c-0.146,0.06-0.292,0.118-0.438,0.178c-1.559-0.706-3.278-0.954-4.976-1.001
		C260.251,410.727,260.593,408.544,261.071,406.388z"/>
	<path fill="#D2E3EF" d="M274.28,406.096c2.265-0.316,4.513-0.756,6.791-0.975c-0.011,0.981,0.048,1.967-0.082,2.944
		c-0.054,0.451-0.004,0.929-0.205,1.352c-0.794,0.282-1.632,0.493-2.479,0.493c-1.762-1.138-3.474-2.362-5.199-3.559
		C273.488,406.229,273.881,406.144,274.28,406.096z"/>
	<path fill="#D2E3EF" d="M258.163,409.128c0.679-0.926,1.523-1.729,2.479-2.365c-0.371,2.145-0.787,4.282-1.088,6.438
		c1.807,0.056,3.68,0.233,5.313,1.073c0.904-0.424,1.944-0.527,2.917-0.317c0.501,0.125,1.044,0.312,1.354,0.755
		c0.144,0.315-0.076,0.609-0.247,0.855c0.056,0.052,0.165,0.154,0.22,0.204c-0.321,0.882-0.48,1.883-1.208,2.547
		c-0.575,0.692-1.49,0.917-2.35,0.977c-1.72,0.236-3.471-0.062-5.111-0.585c-0.903-0.366-1.776-0.806-2.65-1.234
		c-0.883-0.943-1.226-2.31-1.234-3.579C256.636,412.203,257.148,410.5,258.163,409.128z"/>
	<path fill="#9D274D" d="M262.733,407.475c0.542-0.186,1.061,0.17,1.538,0.381c1.487,0.732,2.996,1.422,4.473,2.173
		c0.449,0.211,0.82,0.662,0.755,1.184c-0.121,0.968-0.342,1.921-0.522,2.879c-0.063-0.044-0.186-0.132-0.248-0.175
		c0.081-0.942,0.385-1.851,0.454-2.794c0.04-0.392-0.292-0.663-0.609-0.811c-1.607-0.801-3.222-1.587-4.844-2.356
		c-0.287-0.115-0.609-0.292-0.921-0.159c-0.213,0.325-0.197,0.742-0.283,1.111c-0.117,0.841-0.37,1.661-0.429,2.51
		c-0.006,0.417,0.423,0.612,0.736,0.78c0.975,0.471,1.964,0.912,2.93,1.405c-0.143,0.074-0.292,0.118-0.447,0.128
		c-0.971-0.448-1.933-0.919-2.892-1.393c-0.404-0.182-0.716-0.6-0.631-1.058c0.129-0.995,0.364-1.976,0.519-2.967
		C262.385,408.012,262.376,407.593,262.733,407.475z"/>
	<path fill="#E77396" d="M262.809,407.797c0.312-0.133,0.634,0.044,0.921,0.159c1.623,0.77,3.237,1.556,4.844,2.356
		c0.317,0.147,0.649,0.419,0.609,0.811c-0.069,0.943-0.374,1.852-0.454,2.794c-0.943-0.381-1.966-0.474-2.965-0.313
		c-0.965-0.493-1.955-0.935-2.93-1.405c-0.313-0.168-0.742-0.363-0.736-0.78c0.059-0.849,0.312-1.669,0.429-2.51
		C262.613,408.539,262.596,408.122,262.809,407.797z"/>
	<path fill="#A8C5E2" d="M285.313,407.77c0.997,0.401,1.919,0.975,2.942,1.314c1.445,0.573,3.01,0.974,4.573,0.749
		c0.129-0.05,0.253-0.104,0.376-0.168l0.023-0.013c0.29,0.871,1.131,1.325,1.942,1.61c-0.403,0.27-0.897,0.315-1.368,0.336
		c-2.063,0.095-4.098-0.461-5.988-1.246c-0.587-0.284-1.205-0.527-1.742-0.897C285.808,408.899,285.523,408.348,285.313,407.77z"/>
	<path fill="#9D274D" d="M273.599,408.677c0.127-0.137,0.459,0.021,0.346,0.209C273.815,409.038,273.45,408.875,273.599,408.677z"/>
	<path fill="#D0667F" d="M271.667,409.911c1.059,0.025,2.077-0.307,3.084-0.589c-0.77,4.681-1.686,9.338-2.503,14.011
		c-0.022,0.341-0.222,0.689-0.595,0.719c-0.959,0.166-1.922,0.365-2.899,0.379c0.143-0.415,0.775-3.727,1.021-5
		c0.079-0.384,0.295-0.722,0.403-1.097c0.096-0.522,0.065-1.057,0.158-1.578C270.792,414.476,271.231,412.193,271.667,409.911z"/>
	<path fill="#247BA8" d="M282.383,409.68c0.726-0.183,1.524,0.417,1.554,1.166c0.069,0.53-0.213,1.117-0.714,1.334
		c-0.526,0.316-1.242,0.117-1.607-0.353c-0.323-0.328-0.247-0.824-0.217-1.237C281.49,410.113,281.951,409.822,282.383,409.68z"/>
	<path fill="#1F6897" d="M275.012,410.038c1.546,1.133,3.195,2.124,4.711,3.295c-1.764,0.063-3.526-0.04-5.289-0.034
		C274.564,412.203,274.777,411.113,275.012,410.038z"/>
	<path fill="#B89E3B" d="M285.047,413.349c0.091-0.198,0.296-0.262,0.494-0.301c-0.283,0.589-0.648,1.133-0.979,1.695
		c-0.093,0.195-0.296,0.273-0.496,0.313C284.368,414.473,284.693,413.902,285.047,413.349z"/>
	<path fill="#EACE3E" d="M285.8,413.319c0.047,0.02,0.143,0.058,0.19,0.077c0.266,0.577,0.444,1.193,0.717,1.77
		c0.086,0.192,0.255,0.349,0.462,0.4c0.623,0.192,1.275,0.27,1.898,0.465c0.338,0.103,0.493,0.584,0.217,0.837
		c-0.472,0.449-1.016,0.817-1.495,1.261c-0.172,0.15-0.271,0.384-0.251,0.615c0.029,0.645,0.132,1.286,0.148,1.934
		c-0.01,0.314-0.36,0.573-0.659,0.457c-0.691-0.295-1.24-0.849-1.938-1.127c-0.783-0.082-1.435,0.662-2.179,0.631
		c-0.205-0.911,0.602-1.811,0.35-2.732c-0.384-0.6-0.959-1.053-1.343-1.652c-0.211-0.285-0.018-0.696,0.314-0.761
		c0.666-0.1,1.343-0.066,2.01-0.148c0.223-0.03,0.422-0.172,0.535-0.365C285.13,414.433,285.43,413.854,285.8,413.319z"/>
	<path fill="#247BA8" d="M274.306,413.608c1.98-0.07,3.961,0.089,5.942,0.042c0.03,1.27-0.492,2.546-1.324,3.5
		c-1.377,1.437-3.593,1.636-5.43,1.145C273.739,416.727,274.095,415.179,274.306,413.608z"/>
	<path fill="#1F6897" d="M280.233,415.553c0.202-0.515,0.259-1.067,0.39-1.601c0.54,0.289,1.022,0.675,1.544,0.994
		c-0.496,0.17-1.2,0.159-1.319,0.809c-0.017,0.801,0.775,1.267,1.197,1.858c0.295,0.282,0.351,0.714,0.209,1.089
		c-0.13,0.52-0.345,1.024-0.363,1.566c-0.049,0.505,0.478,0.949,0.97,0.826c0.686-0.188,1.293-0.594,1.984-0.767
		c0.51,0.036,0.881,0.465,1.328,0.674c-0.004,0.264-0.016,0.529-0.076,0.786c-0.327,1.546-0.802,3.101-1.721,4.403
		c-1.117,0.348-2.277,0.583-3.45,0.588c-0.637,0.012-1.275,0.007-1.909,0.057c-1.484,0.099-2.967-0.034-4.448-0.098
		c0.26-0.444,0.321-0.957,0.234-1.459c-2.021,0.898-4.297,1.034-6.47,0.791c-0.248-0.037-0.361-0.29-0.502-0.463
		c-0.31-0.496-0.698-0.943-0.936-1.48c0.641,0.156,1.194,0.597,1.862,0.646c0.978-0.068,1.947-0.226,2.915-0.379
		c0.367-0.046,0.763-0.267,0.815-0.666c0.368-1.695,0.604-3.419,0.963-5.116c1.419,0.378,2.974,0.337,4.33-0.25
		C278.958,417.834,279.814,416.756,280.233,415.553z"/>
	<path fill="#D2E3EF" d="M288.552,415.61c0.585-0.645,1.516-1.04,2.396-0.968c-0.196,0.357-0.395,0.715-0.604,1.064
		c-0.208,0.294-0.035,0.683,0.162,0.935c0.425,0.403,1.114,0.547,1.346,1.139c0.171,0.77-0.536,1.515-0.144,2.273
		c0.455-0.119,0.792-0.46,1.199-0.673c1.066-0.359,2.203-0.124,3.238,0.222c0.791,0.264,1.63,0.091,2.362-0.26
		c0.252,1.004-0.269,2.133-1.08,2.746c-0.947,0.694-2.182,1.021-3.345,0.811c-1.219-0.156-2.356-0.774-3.605-0.739
		c-0.81-0.011-1.625,0.307-2.201,0.88c-0.771,0.689-1.706,1.197-2.681,1.542c0.394-1.09,0.737-2.204,0.885-3.356
		c0.456,0.338,1.254,0.318,1.458-0.295c0.149-0.807-0.209-1.642-0.061-2.44c0.493-0.564,1.177-0.932,1.685-1.482
		c0.255-0.326,0.192-0.834-0.121-1.096C289.202,415.686,288.854,415.685,288.552,415.61z"/>
	<path fill="#73A7C5" d="M290.949,414.642c0.055-0.013,0.167-0.036,0.224-0.047c-0.082,0.505-0.423,0.904-0.604,1.372
		c0.148,0.6,0.85,0.689,1.313,0.949c0.698,0.576,0.839,1.599,0.426,2.385c0.87-0.439,1.889-0.636,2.838-0.354
		c0.865,0.26,1.768,0.604,2.683,0.396c0.326-0.062,0.551-0.321,0.815-0.497c0.197,0.049,0.184,0.297,0.244,0.452
		c0.191,0.97,0.047,2.05-0.575,2.845c-0.567,0.709-1.446,1.085-2.319,1.256c-1,0.186-2.06,0.193-3.023-0.156
		c-0.83-0.271-1.594-0.831-2.503-0.766c-0.775-0.033-1.49,0.28-2.191,0.563c0.576-0.573,1.391-0.891,2.201-0.88
		c1.249-0.035,2.386,0.583,3.605,0.739c1.163,0.211,2.398-0.116,3.345-0.811c0.811-0.613,1.332-1.742,1.08-2.746
		c-0.732,0.351-1.571,0.523-2.362,0.26c-1.036-0.346-2.172-0.581-3.238-0.222c-0.407,0.213-0.744,0.554-1.199,0.673
		c-0.392-0.759,0.315-1.504,0.144-2.273c-0.231-0.592-0.921-0.735-1.346-1.139c-0.197-0.252-0.37-0.641-0.162-0.935
		C290.554,415.357,290.753,415,290.949,414.642z"/>
	<path fill="#CAAB2E" d="M281.721,415.307c-0.154,0.381-0.335,0.828-0.069,1.208c0.45,0.553,1.03,1.027,1.353,1.672
		c-0.055,0.892-0.562,1.724-0.447,2.637c-0.208-0.18-0.485-0.409-0.351-0.721c0.119-0.734,0.514-1.44,0.432-2.193
		c-0.331-0.591-0.861-1.034-1.275-1.563c-0.122-0.145-0.184-0.336-0.194-0.522C281.209,415.534,281.508,415.438,281.721,415.307z"/>
	<path fill="#CD5073" d="M258.61,418.853c0.766,0.519,1.487,1.142,2.384,1.427c1.893,0.637,3.936,0.896,5.921,0.632
		c1.083-0.139,2.197-0.572,2.859-1.481c-0.246,1.273-0.878,4.585-1.021,5c-0.396-0.081-0.776-0.219-1.141-0.395
		c-2.643-1.211-5.255-2.486-7.874-3.755c-0.334-0.166-0.699-0.293-0.978-0.548C258.529,419.501,258.559,419.149,258.61,418.853z"/>
	<path fill="#9D274D" d="M268.478,424.364l0.896-4.487l0.44-0.604c0,0-0.006,0.03-0.015,0.073c-0.126,0.625-1.046,5.085-1.046,5.085
		"/>
	<path fill="#247BA8" d="M273.223,426.149c0.454-0.115,0.893-0.284,1.353-0.377c-0.001,0.345-0.183,0.669-0.529,0.765
		c-1.595,0.581-3.354,0.676-5.021,0.398c-0.266-0.004-0.376-0.256-0.461-0.461C270.121,426.481,271.702,426.535,273.223,426.149z"/>
	<path fill="#247BA8" d="M282.35,426.974c0.605-0.064,1.189-0.247,1.79-0.341c-0.105,0.341-0.342,0.667-0.718,0.723
		c-2.9,0.709-5.942,0.71-8.879,0.238c0.003-0.186,0.008-0.371,0.013-0.554c1.708,0.143,3.424,0.126,5.136,0.087
		C280.578,427.085,281.468,427.1,282.35,426.974z"/>
	<path fill="#D2E3EF" d="M269.412,427.343c1.638,0.091,3.345,0.07,4.887-0.567c-0.13,0.575-0.026,1.2-0.141,1.757
		C272.505,428.788,270.69,428.487,269.412,427.343z"/>
	<path fill="#D2E3EF" d="M274.526,427.924c2.91,0.433,5.896,0.427,8.781-0.196c-0.424,0.644-0.897,1.253-1.367,1.863
		c-0.493,0.68-1.35,0.967-2.146,1.094c-1.371,0.225-2.772,0.055-4.115-0.245c-0.318-0.098-0.695-0.129-0.944-0.371
		C274.507,429.379,274.54,428.639,274.526,427.924z"/>
	<g id="图层_3">
	</g>
	<path fill="#F3F4F6" d="M264.058,382.6c0.315,0.036,0.625,0.112,0.919,0.236c-0.415,0.226-0.842,0.43-1.283,0.594
		C263.794,383.144,263.917,382.867,264.058,382.6z"/>
	<path fill="#A8C5E2" d="M269.11,415.771c1.138,1.027,0.981,2.929-0.061,3.961c-0.811,0.688-1.909,0.88-2.938,0.959
		c-1.957,0.075-3.979-0.187-5.758-1.038c-0.943-0.596-1.938-1.232-2.563-2.178c0.874,0.429,1.747,0.868,2.65,1.234
		c1.641,0.523,3.392,0.821,5.111,0.585c0.86-0.06,1.775-0.284,2.35-0.977C268.63,417.654,268.789,416.653,269.11,415.771z"/>
</g>
<g id="图层_5" opacity="0.6">
	
		<line fill="#FFFFFF" stroke="#FFFFFF" stroke-width="3" stroke-miterlimit="10" x1="250.566" y1="376.884" x2="256.82" y2="363.853"/>
	
		<line fill="#FFFFFF" stroke="#FFFFFF" stroke-width="3" stroke-miterlimit="10" x1="254.326" y1="379.174" x2="257.939" y2="371.647"/>
	
		<line fill="#FFFFFF" stroke="#FFFFFF" stroke-width="3" stroke-miterlimit="10" x1="289.237" y1="376.794" x2="295.491" y2="363.762"/>
	
		<line fill="#FFFFFF" stroke="#FFFFFF" stroke-width="3" stroke-miterlimit="10" x1="292.998" y1="379.084" x2="296.61" y2="371.556"/>
</g>
</svg>
