<?xml version="1.0" encoding="utf-8"?>
<!-- Generator: Adobe Illustrator 16.0.0, SVG Export Plug-In . SVG Version: 6.00 Build 0)  -->
<!DOCTYPE svg PUBLIC "-//W3C//DTD SVG 1.1//EN" "http://www.w3.org/Graphics/SVG/1.1/DTD/svg11.dtd">
<svg version="1.1" xmlns="http://www.w3.org/2000/svg" xmlns:xlink="http://www.w3.org/1999/xlink" x="0px" y="0px" width="673px"
	 height="673px" viewBox="0 0 673 673" enable-background="new 0 0 673 673" xml:space="preserve">
<g id="图层_7" display="none">
	<rect x="-22.5" y="-14.165" display="inline" fill="#E4007F" width="718" height="701.33"/>
</g>
<g id="图层_8">
</g>
<g id="图层_1">
	<g>
		<g>
			<circle fill="#FFFFFF" cx="382.844" cy="352.619" r="7.795"/>
			
				<ellipse transform="matrix(0.0164 -0.9999 0.9999 0.0164 -182.4653 520.041)" fill="#FFFFFF" cx="173.095" cy="352.764" rx="8.174" ry="8.179"/>
			<path fill="#FFFFFF" d="M361.415,160.701c3.41-9.88,14.24-16.4,24.539-15.521c7.041,0.54,13.15,5.671,15.68,12.141
				c2.91,7.29,1.682,15.5-0.898,22.7c-3.191,8.409-7.602,16.479-13.461,23.34c-1.02-4.53-2.01-9.2-4.52-13.17
				c-1.791-2.811-5.221-3.61-8.109-4.771C365.005,182.061,358.175,170.731,361.415,160.701L361.415,160.701z M379.214,149.561
				c-2.52,0.79-4.67,2.92-5.059,5.579c0.139,2.41,2.479,3.761,4.699,3.66c4.041,0.36,8.99-2.34,9.029-6.81
				C386.745,148.441,382.114,148.421,379.214,149.561z"/>
			<path fill="#FFFFFF" d="M269.294,148.591c2.37-1.18,7.564-2.348,7.64,0.42s-18.479,11.25-28.01,16.271
				c-19.529,9.189-38.6,19.41-58.72,27.28c-1.12,0.43-2.311-0.221-3.43-0.28c0.35-0.95,0.699-1.891,1.06-2.84
				c4.94-1.84,9.48-4.54,14.1-7.051C224.604,171.561,246.794,159.76,269.294,148.591z"/>
			<path fill="#FFFFFF" d="M406.815,188.061c5.689-6.61,13.068-12.87,22.16-13.48c7.449-0.78,15.289,3.06,18.619,9.9
				c4.609,9.14,3.26,21.72-4.73,28.58c-6.389,5.35-15.879,4.89-22.949,1.21c-3.881-2.051-6.311-6.17-10.461-7.73
				c-5.08-0.979-10.17,0.57-15.1,1.64C397.395,200.881,401.784,194.161,406.815,188.061L406.815,188.061z M426.235,178.621
				c-2.711,0.22-6.16,2.32-5.42,5.47c2.17,6.101,15.16,4.71,13.699-2.7C432.594,178.991,429.184,178.161,426.235,178.621z"/>
			<path fill="none" d="M426.235,178.621c2.949-0.46,6.359,0.37,8.279,2.77c1.461,7.41-11.529,8.801-13.699,2.7
				C420.075,180.941,423.524,178.841,426.235,178.621z"/>
			<path fill="#FFFFFF" d="M187.643,198.961c-0.5,0.18-1.489,0.54-1.989,0.72l0.13,0.27c-1.83,0.68-3.66,1.38-5.48,2.1
				c-1.229,0.46-2.449,0.92-3.68,1.38c-0.1-0.61-0.31-1.84-0.42-2.45c-4.91-4.06-8.521-11.81-4.29-17.59
				c1.89-1.13,3.99-1.75,6.21-1.69c3.85,1.38,7.14,5.11,6.84,9.37C183.874,194.401,189.624,195.581,187.643,198.961z"/>
			<path fill="#FFFFFF" d="M478.085,334.201c-6.701-24.021-18.58-46.541-34.34-65.851c-35.012-43.25-88.65-70.03-143.892-74.41
				c-0.399,0.03-1.189,0.09-1.58,0.12c-6.399-1.1-12.92-0.98-19.38-0.98c-30.289,0.11-60.43,6.9-88.06,19.22
				c0.71,2.24,1.47,4.47,2.38,6.65c1.521,0.77,3.24,1.93,2.33,3.9c-2.24,3.6-7.479,5.4-11.45,3.94c-1.729-1.13-0.5-3.17-0.27-4.72
				c-0.641-1.75-1.3-3.48-1.98-5.21c-19.739,9.94-37.729,23.34-53.069,39.24c-22.851,23.47-39.44,53.07-47.011,84.98
				c-0.609,2.78-1.529,5.55-1.34,8.44c2.021-4.671,3.38-9.611,5.82-14.101c10.58-22.03,30.439-39.25,53.62-46.931
				c21.76-7.149,46.18-6.02,67.05,3.48c21.65,9.68,38.99,28.12,47.78,50.1c6.569-4.47,14.42-6.66,22.3-7.16
				c10.319-0.709,21.43,0.32,30.13,6.461c7.609-18.17,20.82-34.051,37.77-44.211c19.65-12.119,43.961-16.049,66.521-11.42
				c20.068,4.07,38.609,15.19,51.738,30.891c8.291,9.59,13.941,21.08,18.07,32.99C481.214,344.35,479.184,339.31,478.085,334.201z
				 M181.053,270.22c-10.779-1.53-21.229,2.34-31.17,6c0.44-0.65,1.32-1.95,1.76-2.6c0.381-0.53,0.771-1.05,1.171-1.56
				c7.42-8.31,18.97-12.56,30.01-11.04c12.399,1.54,23.95,9.75,29.229,21.11C202.143,277.211,192.254,271.481,181.053,270.22z
				 M375.794,270.341c-10.891,1.33-20.449,7.01-30.129,11.71c4.229-9.57,13.27-16.62,23.109-19.79
				c14.189-4.54,31.129,1.09,39.029,13.899C397.575,272.571,386.844,268.49,375.794,270.341z"/>
			<path fill="#FFFFFF" d="M168.674,194.12c-3.68,1.46-7.37,2.89-10.979,4.52l-0.181,0.23c-2.479,0.72-4.859,1.71-7.199,2.78
				c-11.631,5.26-23.29,10.45-34.82,15.94c-11.91,6.03-23.73,12.27-35.59,18.4c-2.471,1.18-4.62,3.12-5.141,5.92l0.08-0.03
				c0.221,0.91,0.87,3.67,2.061,4.29c1.189,0.62,4.02,0.73,5.96-0.05c22.67-7.46,45.479-14.55,67.649-23.44
				c4.17-1.74,8.521-3.12,12.46-5.35c3.561-2.01,4.431-6.28,6.69-9.37c1.58-1.69,3.45-3.11,4.94-4.9
				C172.104,200.461,170.274,197.331,168.674,194.12z M78.134,240.311c0.25-0.12,0.51-0.25,0.79-0.38c1.71-0.8,3.42-1.6,5.13-2.41
				C82.084,238.45,80.104,239.39,78.134,240.311z"/>
			<path fill="#FFFFFF" d="M193.614,222.071c-0.87,0.77-1.74,1.55-2.61,2.33c-1.76,0.38-3.53,0.7-5.3,0.98
				c1.31-2.7-0.4-5.35-1.26-7.88c-1.4-3.85-3-7.63-4.29-11.52c-0.33-1.19,0.16-1.88,1.47-2.09c1.07-0.28,2.15-0.58,3.22-0.91
				c2.15,5.89,4.55,11.68,6.58,17.61C191.973,220.961,193.074,221.7,193.614,222.071z"/>
			<path fill="#FFFFFF" d="M247.924,370.331c-0.76-20.15-10.78-39.31-25.3-53.06c-0.93-0.83-1.85-1.73-3.05-2.141
				c-9.09-8.37-20.811-13.66-32.75-16.57c-19.73-4.63-41.181-1.289-58.54,9.18c-16,9.531-28.47,24.83-34.47,42.461
				c-6.141,17.689-5.65,37.539,1.3,54.919c0.279,0.7,0.569,1.4,0.88,2.091c0.189,0.449,0.39,0.899,0.6,1.35
				c0.07,0.16,0.141,0.31,0.221,0.47c0.239,0.521,0.479,1.04,0.739,1.551c0.16,0.329,0.32,0.659,0.5,0.989
				c0.38,0.771,0.78,1.54,1.2,2.29c0.3,0.561,0.62,1.12,0.93,1.67c0.011,0.011,0.011,0.021,0.021,0.03
				c0.18,0.32,0.37,0.64,0.56,0.95c0.061,0.1,0.12,0.189,0.17,0.29c0.25,0.42,0.511,0.83,0.771,1.24
				c0.28,0.46,0.57,0.909,0.87,1.359c0.58,0.9,1.189,1.79,1.819,2.66c0.311,0.44,0.62,0.88,0.95,1.31
				c0.23,0.32,0.471,0.631,0.7,0.94c0.21,0.271,0.43,0.54,0.64,0.81c0.2,0.271,0.421,0.53,0.631,0.801
				c0.689,0.85,1.399,1.689,2.13,2.52c0.27,0.32,0.55,0.63,0.84,0.94c0.71,0.79,1.439,1.56,2.18,2.31l0.12,0.12
				c0.12,0.13,0.25,0.25,0.38,0.38c0.09,0.101,0.19,0.19,0.29,0.28c4.43,4.29,9.37,8.08,14.71,11.26
				c11.58,6.89,25.07,10.95,39.521,11.19c10.609,0.17,20.77-1.73,30.09-5.33c3-1.15,5.91-2.49,8.72-3.99
				c13.521-7.18,24.72-18.15,32.19-31.49c0.14-0.24,0.27-0.479,0.399-0.72c0.04-0.07,0.07-0.13,0.101-0.2
				C245.994,400.131,249.404,385.171,247.924,370.331z M174.973,417.07c-24.56-0.399-44.14-21.38-43.72-46.85s20.67-45.8,45.23-45.4
				c24.569,0.41,44.14,21.381,43.72,46.86C219.794,397.15,199.534,417.48,174.973,417.07z"/>
			<path fill="#FFFFFF" d="M180.944,332.621c-19.23-0.311-35.101,17-35.46,38.67c-0.351,21.67,14.949,39.489,34.18,39.8
				c19.229,0.319,35.1-16.99,35.46-38.66C215.473,350.76,200.174,332.941,180.944,332.621z M197.374,374.371
				c-5.9-0.09-10.76,4.68-10.86,10.68c-0.05,2.819,0.971,5.399,2.67,7.359c-3.22,1.46-6.779,2.23-10.5,2.171
				c-14.35-0.23-25.779-12.82-25.529-28.11s12.09-27.49,26.439-27.26c14.351,0.24,25.78,12.82,25.53,28.109
				c-0.06,3.221-0.62,6.291-1.62,9.15C201.784,375.18,199.674,374.41,197.374,374.371z"/>
			<path fill="#FFFFFF" d="M440.204,312.68c-13.25-10.12-29.779-16.13-47.699-16.13c-1.361,0-2.721,0.03-4.07,0.1
				c-1.34,0.07-2.68,0.17-4.01,0.311c-0.66,0.07-1.32,0.14-1.98,0.23c-0.66,0.08-1.32,0.18-1.971,0.279
				c-0.459,0.07-0.93,0.141-1.389,0.23c-0.41,0.07-0.82,0.14-1.23,0.22c-0.49,0.09-0.99,0.19-1.48,0.3
				c-0.199,0.04-0.4,0.08-0.6,0.13c-0.5,0.101-0.99,0.21-1.48,0.33c-0.24,0.06-0.49,0.12-0.73,0.181
				c-0.209,0.049-0.42,0.1-0.629,0.149c-0.041,0.011-0.07,0.021-0.109,0.03c-0.041,0.01-0.08,0.02-0.111,0.029
				c-0.6,0.16-1.199,0.32-1.789,0.49c-0.08,0.021-0.16,0.051-0.24,0.07c-0.17,0.05-0.34,0.1-0.51,0.15
				c-0.391,0.109-0.781,0.229-1.16,0.35c-0.07,0.02-0.141,0.04-0.211,0.07c-0.42,0.13-0.84,0.27-1.26,0.41
				c-0.24,0.08-0.48,0.16-0.709,0.239c-0.5,0.171-1,0.351-1.49,0.53c-0.41,0.15-0.811,0.3-1.211,0.46
				c-0.08,0.03-0.16,0.06-0.24,0.09c-0.18,0.07-0.359,0.14-0.529,0.21c-0.529,0.21-1.039,0.42-1.561,0.641l-0.27,0.119
				c-0.301,0.121-0.6,0.25-0.9,0.391c-0.219,0.09-0.43,0.189-0.639,0.29c-0.15,0.06-0.311,0.13-0.461,0.21
				c-0.359,0.16-0.721,0.33-1.07,0.5c-0.07,0.029-0.15,0.07-0.219,0.109c-0.57,0.271-1.141,0.561-1.701,0.851
				c-9.25,4.771-17.439,11.319-24.129,19.21c-11.791,13.89-18.91,31.93-18.91,51.63c0,13.67,3.42,26.54,9.449,37.77
				c0.32,0.59,0.65,1.181,0.99,1.76c0.18,0.32,0.359,0.641,0.561,0.961c2.92,4.869,6.35,9.43,10.199,13.569
				c11.92,12.72,28.08,21.431,45.311,24.15c16.189,2.66,33.189,0.1,47.859-7.26c4.74-2.32,9.23-5.15,13.4-8.381
				c0.09-0.069,0.17-0.13,0.25-0.199c0.41-0.32,0.82-0.65,1.23-0.99c17.559-14.59,28.75-36.67,28.75-61.38
				C471.505,350.201,459.223,327.211,440.204,312.68z M396.684,418.801c-25.631,0-46.42-21.59-46.42-48.21
				c0-0.45,0.01-0.89,0.02-1.33c0-0.08,0-0.149,0.01-0.22c0-0.18,0.01-0.36,0.02-0.54c-0.01-0.011-0.01-0.011,0-0.011
				c0-0.01,0-0.01,0-0.01c-0.01-0.01,0-0.02,0-0.02c-0.01-0.01-0.01-0.01,0-0.02c0-0.07,0-0.131,0.012-0.19
				c0-0.15,0.01-0.29,0.02-0.431c0-0.129,0.01-0.25,0.02-0.369c0.01-0.16,0.02-0.33,0.029-0.49c0.031-0.35,0.051-0.7,0.09-1.051
				c0.012-0.1,0.021-0.209,0.031-0.31c0.02-0.19,0.039-0.39,0.061-0.579c0.039-0.391,0.09-0.781,0.148-1.171
				c0.021-0.2,0.051-0.399,0.08-0.6c0.031-0.2,0.061-0.39,0.09-0.58c0.031-0.2,0.061-0.41,0.102-0.61
				c0.049-0.33,0.119-0.67,0.18-0.99c0.039-0.199,0.08-0.399,0.119-0.6c0.051-0.26,0.109-0.52,0.16-0.77
				c0.109-0.471,0.211-0.94,0.34-1.41c0.031-0.11,0.061-0.221,0.09-0.34c0.111-0.471,0.25-0.94,0.391-1.4
				c0.07-0.279,0.16-0.561,0.25-0.83c0.039-0.14,0.09-0.279,0.129-0.41c0.012-0.039,0.012-0.07,0.031-0.1
				c0.01-0.04,0.02-0.08,0.029-0.11c0.07-0.239,0.16-0.47,0.25-0.71c0.01-0.05,0.031-0.1,0.051-0.15
				c0.01-0.049,0.029-0.109,0.049-0.159c0.021-0.07,0.051-0.13,0.08-0.2c0.01-0.03,0.021-0.061,0.031-0.09
				c0.01-0.03,0.02-0.07,0.039-0.1c0.111-0.36,0.24-0.711,0.391-1.07c0.119-0.32,0.25-0.631,0.379-0.95
				c0.102-0.271,0.211-0.53,0.33-0.79c0.111-0.26,0.23-0.52,0.352-0.78c0.209-0.489,0.439-0.97,0.68-1.45
				c0.129-0.25,0.26-0.51,0.389-0.76c0.08-0.18,0.182-0.359,0.281-0.54c0.061-0.1,0.109-0.2,0.16-0.3
				c0.229-0.41,0.459-0.83,0.689-1.24c0.039-0.07,0.08-0.14,0.119-0.21c0,0,0,0,0-0.01c0.061-0.09,0.111-0.181,0.17-0.271
				c0.182-0.31,0.361-0.609,0.561-0.91c0.041-0.06,0.08-0.119,0.111-0.18c0.01-0.02,0.02-0.039,0.039-0.06
				c0.01-0.011,0.01-0.021,0.02-0.03c0.25-0.41,0.51-0.81,0.791-1.21c0.129-0.2,0.26-0.399,0.41-0.6c0.129-0.2,0.27-0.4,0.42-0.591
				c0.279-0.39,0.559-0.779,0.859-1.159c0.289-0.39,0.59-0.771,0.9-1.14c0.299-0.371,0.609-0.74,0.93-1.101
				c0.289-0.34,0.59-0.681,0.891-1.01c0.18-0.2,0.369-0.4,0.559-0.591c0.16-0.17,0.32-0.35,0.5-0.52c0.33-0.35,0.67-0.68,1.021-1.01
				c0.34-0.33,0.68-0.65,1.029-0.96c0.529-0.49,1.08-0.97,1.641-1.42c0.189-0.16,0.369-0.31,0.559-0.46
				c0.24-0.2,0.49-0.391,0.74-0.57c0.41-0.33,0.83-0.63,1.25-0.93c0.201-0.15,0.41-0.301,0.621-0.44
				c0.49-0.34,0.979-0.67,1.479-0.979c0.201-0.131,0.4-0.26,0.611-0.381c0.48-0.299,0.969-0.59,1.469-0.869
				c0.65-0.37,1.32-0.73,2-1.061c0.291-0.16,0.59-0.3,0.891-0.439c0.291-0.141,0.59-0.271,0.881-0.4
				c0.289-0.141,0.58-0.26,0.879-0.38c0.17-0.08,0.33-0.149,0.5-0.21c0.33-0.141,0.67-0.28,1.01-0.4
				c0.201-0.08,0.391-0.15,0.59-0.22c0.281-0.11,0.561-0.21,0.852-0.3c0.479-0.17,0.959-0.32,1.439-0.46
				c0.221-0.08,0.449-0.14,0.67-0.2c0.391-0.12,0.779-0.23,1.18-0.32c0.52-0.14,1.051-0.27,1.57-0.38
				c0.27-0.06,0.539-0.12,0.811-0.17c0.398-0.08,0.799-0.16,1.199-0.22c0.34-0.07,0.68-0.12,1.02-0.16
				c0.33-0.061,0.66-0.109,0.99-0.141c0.08-0.02,0.17-0.029,0.25-0.029c0.211-0.03,0.43-0.061,0.641-0.08
				c0.27-0.03,0.529-0.05,0.799-0.07c0.432-0.05,0.871-0.08,1.311-0.1c0.221-0.02,0.439-0.03,0.66-0.03
				c0.66-0.04,1.32-0.05,1.98-0.05c0.4,0,0.799,0,1.199,0.02c0.361,0.01,0.73,0.021,1.09,0.041c0.361,0.02,0.73,0.039,1.09,0.069
				c0.201,0.011,0.391,0.03,0.58,0.05c0.191,0.01,0.371,0.03,0.561,0.051c0.17,0.01,0.35,0.029,0.52,0.06
				c0.41,0.04,0.82,0.09,1.23,0.149c0.221,0.03,0.43,0.061,0.65,0.101c0.391,0.05,0.77,0.12,1.16,0.19
				c0.43,0.08,0.85,0.16,1.279,0.25c0.461,0.1,0.93,0.209,1.391,0.33c0.311,0.069,0.629,0.149,0.939,0.229
				c0.24,0.069,0.471,0.13,0.711,0.2c0.279,0.08,0.549,0.16,0.818,0.25c0.381,0.109,0.75,0.229,1.121,0.359
				c0.561,0.18,1.109,0.381,1.65,0.59c0.35,0.131,0.689,0.261,1.029,0.41c0.279,0.101,0.551,0.221,0.82,0.34
				c0.779,0.33,1.539,0.69,2.289,1.07c0.34,0.16,0.67,0.34,1.012,0.52c0.939,0.5,1.859,1.031,2.77,1.601
				c0.189,0.12,0.389,0.24,0.58,0.37c0.969,0.62,1.92,1.29,2.85,2c0.369,0.279,0.74,0.561,1.109,0.859
				c0.361,0.291,0.73,0.591,1.08,0.9c0.41,0.35,0.811,0.7,1.201,1.07c0.34,0.3,0.67,0.62,0.988,0.93
				c0.33,0.311,0.65,0.631,0.961,0.96c0.359,0.37,0.721,0.75,1.061,1.13c0.35,0.381,0.689,0.76,1.02,1.16
				c0.301,0.34,0.58,0.68,0.859,1.04c0.281,0.33,0.541,0.67,0.801,1.021c0.07,0.08,0.141,0.17,0.199,0.26
				c0.291,0.38,0.57,0.76,0.83,1.15c0.27,0.359,0.52,0.729,0.76,1.1c0.281,0.4,0.541,0.811,0.791,1.23
				c0.02,0.039,0.049,0.069,0.07,0.109c0.27,0.43,0.529,0.88,0.779,1.32c0.15,0.24,0.291,0.479,0.43,0.729
				c0.07,0.12,0.141,0.25,0.201,0.38c0.119,0.211,0.229,0.42,0.34,0.631c0.029,0.039,0.049,0.08,0.059,0.119
				c0.031,0.061,0.061,0.12,0.09,0.18c0.021,0.051,0.051,0.111,0.08,0.16c0.131,0.25,0.25,0.5,0.371,0.75
				c0.01,0.011,0.01,0.021,0.02,0.03c0.189,0.37,0.371,0.75,0.541,1.13c0.059,0.12,0.109,0.24,0.16,0.37
				c0.01,0.03,0.029,0.06,0.039,0.091c0.1,0.209,0.189,0.42,0.279,0.629c0.121,0.261,0.23,0.53,0.33,0.801c0,0.01,0,0.01,0.01,0.02
				c0,0.01,0.012,0.02,0.012,0.03c0.049,0.12,0.1,0.25,0.148,0.38c0.15,0.391,0.301,0.78,0.451,1.18
				c0.199,0.53,0.389,1.07,0.559,1.61c0.051,0.14,0.102,0.28,0.141,0.431c0.031,0.079,0.061,0.17,0.08,0.26
				c0.08,0.24,0.16,0.49,0.221,0.74c0.02,0.069,0.039,0.129,0.059,0.199c0.121,0.4,0.24,0.811,0.342,1.221
				c0.059,0.199,0.109,0.399,0.158,0.6c0.121,0.5,0.24,1,0.342,1.5c0,0.01,0,0.01,0,0.02c0.049,0.24,0.109,0.48,0.148,0.721
				c0.021,0.09,0.041,0.189,0.061,0.279c0.029,0.15,0.061,0.301,0.08,0.45c0.02,0.06,0.029,0.12,0.029,0.181
				c0.012,0.02,0.012,0.049,0.021,0.08c0.09,0.489,0.17,0.989,0.24,1.479c0.029,0.17,0.049,0.35,0.068,0.521
				c0.021,0.079,0.031,0.159,0.031,0.239c0.029,0.16,0.049,0.33,0.07,0.5c0.029,0.24,0.059,0.49,0.08,0.729
				c0.068,0.541,0.109,1.091,0.148,1.641c0.031,0.311,0.051,0.62,0.061,0.93c0.01,0.141,0.02,0.29,0.02,0.44
				c0.01,0.12,0.021,0.25,0.021,0.37c0.01,0.1,0.01,0.21,0.01,0.31c0.01,0.13,0.01,0.25,0.01,0.38c0.01,0.42,0.02,0.85,0.02,1.28
				C443.114,397.211,422.325,418.801,396.684,418.801z"/>
			<path fill="#FFFFFF" d="M391.524,332.671c-19.051,0-34.49,17.46-34.49,38.989c0,21.53,15.439,38.99,34.49,38.99
				s34.49-17.46,34.49-38.99C426.014,350.131,410.575,332.671,391.524,332.671z M413.534,375.441c-1.459-0.73-3.1-1.141-4.85-1.141
				c-6.031,0-10.92,4.89-10.92,10.92c0,2.439,0.799,4.689,2.16,6.51c-3.281,1.64-6.93,2.55-10.781,2.55
				c-14.209,0-25.729-12.399-25.729-27.689s11.52-27.69,25.729-27.69c14.221,0,25.74,12.4,25.74,27.69
				C414.884,369.68,414.415,372.66,413.534,375.441z"/>
			<path fill="#FFFFFF" d="M478.624,399.94c-4.391,16.32-13.83,31.05-26.32,42.38c-12.59,11.431-28.58,19.07-45.379,21.69
				c-21.34,3.5-43.791-1.11-62.08-12.61c-10.711-7.17-20.291-16.14-27.201-27.069c-5.77-8.721-9.529-18.57-12.21-28.631
				c-1.22-6.75-1.979-13.58-2.069-20.449c-0.16-3.63,1.02-7.36,0.319-10.92c-2.859-4.45-7.74-7.271-12.729-8.7
				c-11.13-3.08-24.15-0.21-32.07,8.43c-1.74,1.551-1.02,4.021-0.99,6.04c2.26,28.02-10.13,56.59-31.85,74.38
				c-0.65,0.57-1.3,1.15-1.96,1.72c-11.33,8.801-24.729,14.86-38.84,17.521c-19.69,3.48-40.55,0.551-58.2-8.96
				c-21.85-11.601-38.59-32.58-44.53-56.65c-1.55-0.72-3.1-1.43-4.649-2.14c1.37,18.67,6.069,37.09,13.529,54.26
				c-6.239,11.961-10.26,25.32-9.72,38.92c0.55,21.53,11.46,41.61,26.37,56.671c3.15,2.97,5.92,6.43,9.68,8.659
				c7.7,7.38,16.881,13.07,26.07,18.42c4.37,2.29,8.58,5,13.3,6.53c1.221,1.021,2.74,1.57,4.17,2.25
				c36.58,16.311,76.801,23.25,116.69,23.82c40.131,0.18,80.561-6.41,117.801-21.67c9.199-4.26,13.699-6.37,18.09-8.82
				c11.209-6.24,29.68-17.92,41.029-30.83c14.109-14.05,23.791-33.1,25.029-53.14c0.932-14.21-3.119-28.29-9.639-40.811
				c5.08-11.93,9.16-24.43,11.15-37.26l0.26,0.229c0.84-5.75,1.74-11.5,2.25-17.29C482.014,397.041,478.925,397.23,478.624,399.94z
				 M150.183,489.06c-0.09,6.431-6.72,9.891-12.199,11.13c-7.44,1.381-15.24,0.73-22.42-1.64c-4.98-1.729-9.771-4.16-13.78-7.62
				c-3.25-3.12-6.55-7.01-6.2-11.83c-0.03-4.279,3.34-7.649,6.93-9.45c5.301-2.58,11.4-2.99,17.181-2.33
				c2.479,0.311,4.949,0.631,7.42,0.99c5.05,1.6,9.95,3.68,14.43,6.521C145.803,478.421,150.584,483.001,150.183,489.06z
				 M320.153,505.371c-2.629,11.2-10.43,21.489-21.289,25.77c-10.461,4.561-22.711,3.7-32.971-1.01
				c-10.48-5.021-17.46-15.29-21.13-26.03c-2.75-9.01-4.35-18.439-3.59-27.87c2.96,0.771,6.01,0.54,9.03,0.58
				c6.199,0.511,12.42,0.69,18.64,0.55c1.479-0.029,3.03-0.1,4.38,0.641c16.55,0.25,33.101,0.04,49.65,0.25
				c0.141,5.53-0.299,11.08-1.539,16.479C322.053,498.331,320.954,501.89,320.153,505.371z M461.403,490.64
				c-6.219,5.44-14.25,8.57-22.34,9.86c-6.75,0.66-14.029,0.83-20.16-2.51c-3.59-1.92-6.568-5.631-6.299-9.881
				c0.17-4.76,3.4-8.649,6.82-11.63c2.559-1.859,5.18-3.64,7.939-5.199c3.34-1.16,6.699-2.291,10.07-3.4
				c7.59-1,15.74-1.689,22.84,1.79c3.689,1.71,6.959,5.16,6.99,9.45C467.425,483.701,464.585,487.631,461.403,490.64z"/>
			<path fill="#FFFFFF" d="M320.153,505.371c-2.629,11.2-10.43,21.489-21.289,25.77c-10.461,4.561-22.711,3.7-32.971-1.01
				c-10.48-5.021-17.46-15.29-21.13-26.03c-2.75-9.01-4.35-18.439-3.59-27.87c2.96,0.771,6.01,0.54,9.03,0.58
				c6.199,0.511,12.42,0.69,18.64,0.55c1.479-0.029,3.03-0.1,4.38,0.641c-10.311,0.05-20.619,0.1-30.93,0.39
				c0.89,11.601,2.68,23.49,8.65,33.69c5.199,10.45,16.109,17.569,27.72,18.399c2.8,0.49,5.66,0.5,8.47,0.011
				c8.66-0.851,17.09-4.721,22.81-11.36c5.851-6.97,9.271-15.63,11.392-24.4C322.053,498.331,320.954,501.89,320.153,505.371z"/>
			<path fill="#FFFFFF" d="M254.504,481.451c4.75-1,9.63-0.37,14.45-0.52c14.43-0.101,28.87,0.21,43.29-0.16
				c-1.521,2.99-3.55,6.92-7.41,6.93c-14.62,0-29.25,0.04-43.88-0.02C257.294,487.911,255.694,484.241,254.504,481.451z"/>
			<path fill="#FFFFFF" d="M275.404,505.761c11.189-1.46,23.24,0.6,32.42,7.439c0.72,0.7,2.18,1.28,1.83,2.54
				c-11.78,16.01-38.44,17.01-51.66,2.311c-0.73-1.061-2.8-2.221-1.771-3.671C261.374,509.371,268.404,506.811,275.404,505.761z"/>
		</g>
		<path fill="#FFFFFF" d="M598.236,139.042c0,11.29-9.396,20.442-20.988,20.442H472.305c-11.591,0-20.988-9.152-20.988-20.442l0,0
			c0-11.29,9.397-20.442,20.988-20.442h104.942C588.84,118.6,598.236,127.752,598.236,139.042L598.236,139.042z"/>
		<path fill="#FFFFFF" d="M524.778,210.589c-11.592,0-20.988-9.152-20.988-20.443V87.936c0-11.289,9.396-20.441,20.988-20.441l0,0
			c11.592,0,20.986,9.152,20.986,20.441v102.209C545.764,201.436,536.37,210.589,524.778,210.589L524.778,210.589z"/>
	</g>
</g>
<g id="图层_5" display="none" opacity="0.5">
	
		<line display="inline" fill="#FFFFFF" stroke="#FFFFFF" stroke-width="14" stroke-miterlimit="10" x1="166.698" y1="266.662" x2="211.87" y2="172.542"/>
	
		<line display="inline" fill="#FFFFFF" stroke="#FFFFFF" stroke-width="14" stroke-miterlimit="10" x1="193.859" y1="283.201" x2="219.952" y2="228.836"/>
	
		<line display="inline" fill="#FFFFFF" stroke="#FFFFFF" stroke-width="14" stroke-miterlimit="10" x1="446.016" y1="266.011" x2="491.189" y2="171.891"/>
	
		<line display="inline" fill="#FFFFFF" stroke="#FFFFFF" stroke-width="14" stroke-miterlimit="10" x1="473.178" y1="282.55" x2="499.271" y2="228.184"/>
</g>
</svg>
