<svg width="129" height="129" viewBox="0 0 129 129" fill="none" xmlns="http://www.w3.org/2000/svg">
<g clip-path="url(#clip0_495_2)">
<path d="M27.4494 35.5H121.256C125.838 35.5 128.982 40.1152 127.304 44.3798L109.599 89.3798C108.621 91.8656 106.222 93.5 103.551 93.5H9.74446C5.16166 93.5 2.01791 88.8848 3.69578 84.6202L21.4007 39.6202C22.3787 37.1344 24.7781 35.5 27.4494 35.5Z" fill="#ACD3FC" stroke="white" stroke-width="3"/>
<path d="M40.4204 48.0229L24.5511 84.594H21.3295L37.1988 48.0229H40.4204Z" fill="#222DF8"/>
<path d="M41.0133 80.0002H37.1355L53.4224 49.4548H57.2406L63.3855 80.0002H59.5076L54.6752 54.2872H54.4366L41.0133 80.0002ZM44.4139 68.0684H60.0446L59.5076 71.3497H43.8769L44.4139 68.0684Z" fill="#222DF8"/>
<path d="M68.1433 80.0002L73.2143 49.4548H83.8933C86.0211 49.4548 87.7164 49.8227 88.9792 50.5585C90.242 51.2843 91.107 52.2637 91.5744 53.4967C92.0417 54.7197 92.1461 56.0769 91.8876 57.5684C91.6688 58.8809 91.2562 59.9647 90.6497 60.8198C90.0531 61.6749 89.3372 62.3511 88.5019 62.8482C87.6767 63.3454 86.8166 63.7133 85.9217 63.9519L85.862 64.2502C86.7768 64.3099 87.6568 64.638 88.5019 65.2346C89.3471 65.8312 89.9984 66.6863 90.4558 67.7999C90.9132 68.9136 91.0126 70.2758 90.7541 71.8866C90.4955 73.4178 89.9139 74.795 89.009 76.018C88.1042 77.241 86.8414 78.2105 85.2207 78.9264C83.5999 79.6423 81.5865 80.0002 79.1802 80.0002H68.1433ZM72.3791 76.719H79.7171C82.1333 76.719 83.9281 76.2516 85.1014 75.317C86.2846 74.3724 86.9955 73.2289 87.2342 71.8866C87.3933 70.8525 87.2789 69.898 86.8911 69.023C86.5133 68.138 85.8819 67.432 84.997 66.9051C84.122 66.3681 83.0183 66.0997 81.6859 66.0997H74.1688L72.3791 76.719ZM74.7058 62.8781H81.5666C82.6802 62.8781 83.7242 62.6593 84.6987 62.2218C85.6731 61.7843 86.4884 61.1678 87.1447 60.3724C87.8009 59.5769 88.2086 58.6423 88.3677 57.5684C88.6063 56.2261 88.3379 55.0876 87.5623 54.1529C86.7867 53.2083 85.3848 52.736 83.3563 52.736H76.3762L74.7058 62.8781Z" fill="#222DF8"/>
<path d="M111.09 48.0229L95.221 84.594H91.9995L107.869 48.0229H111.09Z" fill="#222DF8"/>
</g>
<defs>
<clipPath id="clip0_495_2">
<rect width="129" height="129" fill="white"/>
</clipPath>
</defs>
</svg>
